<svg xmlns="http://www.w3.org/2000/svg" id="Layer_1" viewBox="0 0 2790.58 644.57"><defs><style>.cls-1{fill:#3c3c3b;}</style></defs><path  d="M506.83,363.33c4.36-.55,8.07-1.39,10.88-4.8,1.23-1.49,2.99-2.65,4.7-3.61,8.14-4.53,16.18-9.81,25.03-12.25,6.41-1.77,13.21-4.03,20.28-3.26,2.18,.24,4.44-.4,6.66-.41,10.62-.06,21.24-.26,31.85,.05,3.89,.12,7.74,1.52,11.62,2.33,4.6,.96,9.2,1.89,13.8,2.85,1.23,.26,2.74,.24,3.6,.97,8.53,7.19,19.51,11.03,26.87,19.84,9.42,11.28,18.45,22.89,25.85,35.55,3.05,5.23,4.44,11.68,5.51,17.77,2.53,14.29,5,28.64,6.4,43.07,1.1,11.36,.04,22.93,.93,34.32,.89,11.45-2.81,22.64-1,34.14,.54,3.43-1.06,7.26-1.91,10.85-1.79,7.47-3.75,14.91-5.6,22.36-.18,.71,.13,1.59-.14,2.23-3.58,8.45-6.76,17.11-10.97,25.25-4.48,8.66-11.12,15.85-18.05,22.71-2.72,2.69-5.86,3.69-9.53,3.5-3.2-.17-6.39-.36-9.19-.52-.73,.91-1.31,1.29-1.31,1.67,.06,6.61-1.7,11.69-9.43,12.62-1.56,.19-2.99,1.71-4.43,2.69-1.02,.69-1.87,1.97-2.95,2.18-6.58,1.24-13.18,2.37-19.81,3.3-7.64,1.07-15.3,2.08-22.98,2.72-3.38,.28-6.84-.41-10.26-.68-1.74-.14-3.48-.49-5.21-.43-10.44,.37-20.32-1.67-29.57-6.61-.65-.35-1.32-.86-2.01-.93-16.6-1.59-27.8-12.23-38.74-23.21-4.88-4.9-7.2-5.1-11.39-.12-6.73,8.01-14.14,15.55-21.92,22.56-7.93,7.15-18.13,9.57-28.52,10.18-9.86,.58-19.85-.41-29.65,.59-16.72,1.7-33.26-1.49-49.92-.79-14.63,.62-29.29,.79-43.94,.94-11.44,.12-22.89-.02-34.34-.25-2.45-.05-4.87-1.1-7.34-1.41-6.36-.78-9.95-4.84-11.35-10.5-1.83-7.41-2.97-15.01-4.16-22.56-.78-4.95-1.22-9.95-1.64-14.95-.57-6.84,.75-8.57,7.7-8.66,5.56-.07,10.24-1.65,12.22-6.89,1.28-3.38,2.04-7.75,1.02-11.06-3.25-10.6-7.43-20.91-11.21-31.21-8.97,0-17.42-.35-25.84,.08-14.13,.71-28.24,1.92-42.37,2.91-6.36,.44-12.72,.84-19.09,1.26-.25,.02-.54,.11-.74,.01-9.66-4.86-20.29-.16-30.15-3.03-1.66-.48-3.38-.79-5.45-1.26-4.99,3.97-9.05,8.48-10.04,15.66-.78,5.62-3.39,10.96-4.76,16.53-2.39,9.73,1.58,15.84,11.45,18.14,1.71,.4,3.49,.48,5.19,.9,5.22,1.28,6.81,3.23,5.88,8.52-1.94,11.03-4.18,22-6.42,32.97-.63,3.08-1.28,6.26-2.61,9.07-3.22,6.79-10.21,6.9-15.95,6.62-6.42-.31-12.72-.87-19.24-.55-10.34,.51-20.75-.26-31.13-.52-1.24-.03-2.64-.75-3.69-.37-7.63,2.78-15.33,.86-23.03,.82-8.23-.05-16.47,.67-24.68,1.29-6.93,.52-10.36-1.25-11.88-8.19-1.87-8.5-5.59-16.57-5.29-25.62,.13-3.86-1.46-7.83-2.55-11.67-2.88-10.14,1.02-16.2,11.48-17.8,3.69-.56,7.33-1.47,11.01-2.18,5.29-1.01,7.8-4.73,9.93-9.3,5.61-12.01,9.72-24.46,13.01-37.31,2.41-9.39,5.19-18.98,9.76-27.42,4.29-7.92,5.09-16.5,7.97-24.59,1.32-3.72,3.22-7.23,4.87-10.83,.31-.68,.95-1.31,1.02-2,1.41-13.74,10.25-25.16,12.13-38.76,.19-1.39,.88-3.24,1.94-3.9,4.02-2.52,3.83-6.84,5.01-10.54,1.35-4.24,2.24-8.62,3.62-12.85,2.93-8.99,6.02-17.93,9.09-26.87,.64-1.87,1.48-3.68,2.32-5.48,1.68-3.62,3.61-7.13,5.1-10.82,4.02-9.93,8.08-19.86,11.69-29.94,2.4-6.68-.32-10.47-7.25-11.3-2.46-.29-4.99-1.17-7.37-.87-9.95,1.27-13.67-4.65-11.81-14.84,2.17-11.91,3.91-23.82,5.47-35.8,1.75-13.44,9.05-18.95,22.8-17.79,3.97,.34,7.88,1.33,11.84,1.76,4.23,.46,8.52,1.1,12.72,.8,11.22-.8,22.38-.71,33.52,.77,.98,.13,2.1,1.05,2.84,.77,9.31-3.5,18.76,2.36,28.05-.46,.47-.14,1.07-.29,1.48-.12,8.42,3.5,17.18,.71,25.62,.62,13.61-.14,27.28,1.79,40.9-.3,2.85-.44,6,.41,8.89,1.14,4.41,1.12,8.59,1.28,13.23,.7,6.47-.81,12.83,1.38,17.66,6.18,1.22,1.21,1.45,3.54,1.86,5.41,1.18,5.33,2.29,10.68,3.26,16.06,.44,2.41,.49,4.88,.71,7.32,.17,1.96-.2,4.18,.6,5.84,2.27,4.7,1.85,9.69,2.36,14.6,.4,3.88-1.58,5.65-5,6.12-2.21,.31-4.54-.12-6.71,.3-3.05,.58-6.36,1.06-8.92,2.63-5.37,3.29-6.35,8.1-3.92,14.07,3.95,9.73,7.44,19.65,11.1,29.5,1.22,3.29,2.33,6.62,3.49,9.93,2.14,6.07,4.39,12.11,6.38,18.23,2.07,6.37,3.68,12.9,5.85,19.24,4.1,12.01,8.88,23.8,12.56,35.94,2.74,9.04,8.13,17.16,8.72,26.97,.2,3.3,2.4,6.44,3.49,9.73,1.99,6.04,3.73,12.17,5.76,18.19,1.47,4.34,.71,8.3-1.14,12.32-2.13,4.63-1.78,6.45,2.67,9.39,3.59,2.37,5.51,5.55,7.07,9.34,1,2.43,2.72,4.55,4.03,6.86,.57,1.02,1.25,2.14,1.31,3.25,.68,11.53,5.99,21.67,9.91,32.15,2.84,7.61,9.48,11.98,17.43,13.9,3.64,.88,6.48-1.18,6.43-5.13-.12-8.97-.61-17.93-.96-26.9-.06-1.49-.46-3.01-.24-4.45,2.59-17.23,.34-34.39-.48-51.58-.6-12.43-.81-24.88-1.33-37.31-.35-8.43-1.04-16.86-1.41-25.29-.38-8.7-.54-17.41-.82-26.12-.06-1.73-.21-3.47-.39-5.19-1.04-9.96-2.38-19.89-3.04-29.87-.36-5.44,.78-10.97,.6-16.44-.47-14.18-1.32-28.36-1.93-42.54-.05-1.18,.3-2.5,.84-3.56,4.63-9.12,3.18-18.85,3.09-28.47-.02-2.43,.21-4.94,.8-7.29,2.84-11.33-4.78-22.54-16.45-23.93-1.74-.21-3.55-.05-5.25-.42-6.82-1.49-11.23-8.57-8.46-14.94,4.06-9.33,5.21-19.09,6.35-29,1.3-11.31,9.06-17.07,19.46-16.24,11.82,.94,23.09-1.46,34.37-4.99,7.59-2.38,15.72-2.98,23.59-4.48,8.05-1.54,16.25-1.99,24.34-3.28,9.34-1.5,18.68-3.3,28.06-4.71,1.21-.18,2.49-.18,3.63-.57,9.34-3.14,15.81-.08,18.4,9.13,1.22,4.32,1.77,8.83,2.67,13.24,.85,4.2-1.52,9.14,2.9,12.51-1.65,4.94,.78,9.07,2.25,13.56,1.39,4.23-2.76,9.32-7.2,10.78-4.22,1.39-8.44,3.01-12.29,5.19-1.99,1.13-3.79,3.48-4.56,5.67-1.64,4.69-3.12,9.58-3.65,14.5-1.26,11.63-1.91,23.33-2.83,35-.6,7.57-1.53,14.81-8.67,19.76-2.37,1.64-3.22,5.14-.27,7.84,6.2,5.68,7.02,12.57,5.62,20.55-.98,5.59-.54,11.45-.47,17.19,.02,1.33,1.1,2.64,1.77,4.13Zm49.47,206.01c.03-.13,.05-.26,.08-.39,2.73,0,6.23,1.07,8.03-.22,4.14-2.96,8.91-2.79,13.29-4.26,1.84-.61,3.99-1.38,5.14-2.78,4.71-5.72,9.34-11.53,11.37-18.93,2.91-10.6,5.51-21.2,3.89-32.34-.17-1.19,.44-2.47,.46-3.72,.1-9.97,.49-19.96,.09-29.92-.25-6.2-1.69-12.36-2.63-18.53-1.48-9.82-2.27-19.8-8.53-28.24-3.55-4.78-6.01-10.79-12.47-12.26-7.5-1.71-14.84-6.03-22.96-1.82-1.86,.96-4.5,1.13-6.62,.75-6.82-1.23-12.22,1.2-17.09,5.63-1.47,1.34-3.37,2.3-4.6,3.82-3.56,4.41-7.98,8.58-10,13.66-2.34,5.9-2.84,12.63-3.52,19.06-1.7,16.06,1.06,32.16-.23,48.3-.72,9.03,.08,18.17,2.03,27.34,3.36,15.75,17.21,30.68,33.23,33.42,3.65,.63,7.35,.96,11.03,1.43ZM205.1,320.84c-1.2,2.39-2.06,3.56-2.42,4.88-3.03,11.07-7.08,22.01-8.57,33.29-1.14,8.67-2.95,17.3-5.5,25.29-6.05,18.99-14.1,37.35-21.48,55.9-2.65,6.65-5.87,13.08-8.52,19.73-1.21,3.05-3.22,6.57-.74,8.23,7.4,0,13.09-.08,18.77,.01,17.43,.28,34.87,.69,52.3,.9,4.39,.05,8.79-.48,13.65-.77-.17-5.13,.37-9.13-2.5-13.47-3.5-5.29-5.79-11.51-7.84-17.59-2.46-7.3-3.99-14.9-6.14-22.31-3.98-13.67-8.41-27.21-12.07-40.96-2.1-7.89-4.93-16.31-3.99-24.08,.96-7.99-2.29-14.44-3.24-21.62-.28-2.11-.96-4.18-1.73-7.43Zm249.5-70.45c-.52,5.1,2.14,6.77,5.3,7.77,.67,.21,1.79-1.06,3.24-1.99-3.05-2.07-5.51-3.73-8.54-5.78Zm192.75,262.57v-7.93c-3.91,3.17-4.05,5.57,0,7.93Zm-348.02,34.3c3.89,1.13,5.12,5.05,8.91,2.73q-3.94-4.72-8.91-2.73Zm360.98-6.63c1.44-1.56,2.23-2.42,3.45-3.73-2.32-.65-3.98-1.11-7.21-2.01,1.71,2.61,2.47,3.78,3.75,5.74Zm-327.16,44.98c-.38-.55-.76-1.09-1.14-1.64-1.35,.97-2.7,1.94-4.73,3.4,4.1,2.02,4.89-.06,5.87-1.76Zm-23.12-18.88q5.57,.89,5.45-2.96c-1.52,.82-2.98,1.62-5.45,2.96Zm358.22-73.63c.51,.12,1.02,.24,1.53,.35,.26-2.36,3.58-3.97-.07-8.58-.64,3.6-1.05,5.92-1.46,8.23ZM497.08,212.63c1.61,2.51,2.68,4.17,3.74,5.83q.45-4.56-3.74-5.83Zm-156.37,368.9c-.3,.54-.59,1.08-.89,1.63,.44,.53,.81,1.16,1.34,1.58,1.37,1.08,3.88,.1,3.15-.95-.74-1.07-2.37-1.53-3.6-2.25Zm117.19-119.77c.43,.2,.87,.4,1.3,.59,.68-1.4,1.35-2.81,2.03-4.21-.47-.22-.94-.43-1.41-.65-.64,1.42-1.28,2.84-1.92,4.26Zm116.03,142.27c1.76-1.68,2.82-2.7,4.12-3.94q-5.21-1.54-4.12,3.94Zm-144.26-14.91c.46-1,1.01-1.72,1.04-2.45,.01-.35-1.33-1.14-1.46-1.03-.66,.56-1.13,1.36-1.66,2.07,.53,.36,1.06,.72,2.08,1.41Zm15.62,26.59c-3.34,2.37-3.13,3.89-.57,6.21,.2-2.15,.33-3.65,.57-6.21Zm165.63-33.57c.26-.41,.53-.82,.79-1.23-1.17-.77-2.35-1.54-3.52-2.31-.35,.54-.7,1.08-1.04,1.63,1.26,.64,2.51,1.28,3.77,1.92Zm-262.22,1.25c-.05,.68-.09,1.35-.14,2.03,.98,0,1.96,.04,2.93-.06,.11-.01,.26-1.15,.2-1.17-.98-.33-1.99-.55-2.99-.8Zm133.16-293.69c.47-.37,.95-.74,1.42-1.1-.61-.75-1.22-1.51-1.84-2.26-.33,.27-.99,.68-.94,.79,.38,.89,.89,1.72,1.36,2.57Zm-48.41,308.24v-5.71c-2.7,2.54-3.31,4,0,5.71Z"/><path  d="M1476.51,518.16c2.96,2.56,6.84,4.57,8.72,7.77,5.3,9.04,13.95,14.66,20.84,22.03,1.66,1.78,5.33,2.61,3.66,6.4-.1,.22,.4,1.01,.59,1,6.22-.29,7.99,6.07,12.5,8.38,4.42,2.27,9.42,4.26,12.69,7.75,5.77,6.15,13.75,7.26,21.04,11.07,3.5-2.09,7.41-2.11,11.67-.42,2.74,1.09,5.62,.67,8.54-1.11,6.97-4.27,15.6-5.05,22.14-10.48,4.33-3.6,7.9-7.26,10.68-12.56,3.11-5.91,5.1-11.77,6.09-18.16,.33-2.16,.39-4.36,.51-6.55,.22-4.2,2.51-6.4,6.78-6.14,6.58,.39,13.16,.99,19.74,1.36,1.16,.07,2.34-.63,3.54-.77,3.97-.44,7.94-.76,11.91-1.16,1.73-.17,3.52-.19,5.16-.69,5.64-1.73,11.23-3.63,16.88-5.48,3.32,2.94,4.21,6.01,1.46,9.3-2.1,2.51-1.83,5.37-2.51,8.19-1.87,7.71-4.62,15.27-7.72,22.59-3.79,8.94-7.78,17.89-12.67,26.25-3.87,6.61-8.97,12.56-14.02,18.38-3.55,4.1-7.99,7.42-11.91,11.21-5.02,4.86-10.88,7.54-17.91,7.5-1.3-2.93-2.48-6.06-6.9-4.18q2.33,3.25,7.1,4c-3.13,7.26-10.25,7.29-16.4,8.71-5.48,1.27-11.19,3-16.45,3.41-10.18,.78-20.16,5.76-30.7,2.18-2.25-.76-5.1-.72-7.44-.11-6.09,1.57-11.86,.11-17.74-.92-6.89-1.2-13.81-2.2-20.69-3.44-9.9-1.78-18.97-5.46-27.5-10.94-6.41-4.12-13.55-7.11-20.28-10.75-2.65-1.43-4.72-1.56-7.62,.03-7.41,4.07-15.19,7.45-22.76,11.23-1.3,.65-2.21,2.06-3.49,2.8-2.15,1.26-4.35,2.89-6.7,3.28-16.01,2.65-31.44,8.38-47.87,8.77-4.72,.11-9.42,1.42-14.12,1.38-6.69-.05-13.37-.95-20.06-1.28-6.71-.33-13.43-.6-20.14-.53-10.55,.11-20.36-3.5-30.42-5.81-5.92-1.36-11.31-3.38-13.04-10.56-1.38-5.76-9.07-9.39-16.19-6.83-5.26,1.89-8.79,1-12.87-2.53-11.4-9.84-20.31-21.38-27.88-34.45-5.77-9.97-7.26-21.21-12.02-31.36-.56-1.19,.06-2.89,0-4.35-.09-2.48,.1-5.05-.49-7.42-3.33-13.46-1.23-26.82,.43-40.21,1.53-12.4,6.79-23.56,13.47-33.62,4.08-6.14,8.16-13.19,15.53-16.76,1.71-.83,2.97-2.55,4.51-3.77,2.1-1.65,4.26-3.24,6.43-4.8,.39-.28,1.1-.19,1.38-.51,6.56-7.46,16.12-9.67,24.47-13.97,6.39-3.29,12.97-6.2,19.41-9.4,1.66-.82,3.09-2.09,5.4-3.7-6.06-3.92-8.44-8.78-7.99-15.01,.06-.83-.7-2.23-1.42-2.52-5.71-2.3-6.03-6.58-5.91-12.06,.08-3.36-2.52-6.93-4.36-10.15-1.83-3.19-2.32-6.02-1.69-9.87,1.47-8.85,1.3-17.96,2.76-26.81,1.34-8.1,3.64-16.08,6.2-23.9,.57-1.75,3.87-2.78,6.08-3.78,1.47-.66,3.23-.66,5.7-1.12-5.14-6.76-.85-11.14,2.87-15.45,7.86-9.11,18.56-14.64,28.63-20.49,5.33-3.09,11.83-6.98,19.12-5.08,9.14-4.07,19.35,.04,28.56-3.74,1.02-.42,2.44-.05,3.64,.19,13.06,2.58,26.3,4.5,39.1,8.04,10.83,3,20.99,7.63,30.25,14.88,6.1,4.77,12.24,9.02,16.94,15.33,6.44,8.65,9.18,18.82,12.81,28.65,.17,.46,.35,1.05,.2,1.47-3.03,8.85,2.08,17.57,.46,26.3-.93,5.02,.07,11.07-5.71,14.27-.4,.22-.76,.74-.88,1.18-5.09,18.79-8.91,25.47-22.08,35.92-7.83,6.22-16.08,11.94-24.86,16.83-7.9,4.4-8.26,8.1-2.6,15.41,4.55,5.88,8.28,12.38,12.55,18.48,3.37,4.81,7,9.43,10.54,14.11,.45,.59,1.18,.98,1.6,1.59,5.29,7.78,10.56,15.57,15.81,23.38,4.16,6.18,8.28,12.39,12.42,18.58-1.52,.14-3.04,.28-5.59,.51,2.84,3.12,4.71,5.69,7.09,7.63,2.12,1.73,2.97,.12,2.98-2.04Zm168.78,21.02c.78,2.55,1.87,4.35,6.24,1.34-2.99-.54-4.7-.85-6.4-1.16,1.78-1.9,2.19-3.58-1.69-5.58,.85,2.5,1.35,3.96,1.85,5.41Zm-263.35-84c.56-1.61,1.12-3.22,1.69-4.83-.5-.07-.99-.13-1.49-.2,0,1.74,0,3.48-.03,5.18-2.08-.59-4.03-.85-5,1.87,3.04,2.04,3.92-.03,4.84-2.01Zm61.01-92.26c-2.53-.94-4.99-1.35-6.17,1.82-.21,.55,.72,2.2,1.23,2.25,2.98,.28,4.57-1.35,4.88-4.28q4.36,2.45,5.87-1.56c-2.23,.68-4.02,1.23-5.8,1.77Zm-30.56,104.37c-1.52-.42-3.03-.85-4.55-1.27,.01,2.81,.88,4.6,2.11,6.1,.19,.23,2.63-.64,2.93-1.42,.37-.95-.42-2.36-.75-3.6,1.08-.94,3.21-2.22,3.04-2.76-.75-2.36-2.55-2.32-4.75-.64,.66,1.21,1.32,2.4,1.97,3.6Zm-2.42,141.36c.51-2.86-1.8-3.77-3.9-4.77,1.35,1.55,2.7,3.09,4.05,4.64,1.31,1.47,2.61,2.93,4.57,5.13,1.89-3.35,3.13-5.56,5.06-8.97-2.8-.14-4.59-.78-5.68-.16-1.63,.92-2.76,2.72-4.09,4.14Zm205.55-.27q-2.76,5.22,4.02,9.6c-1.82-4.14-3-6.83-4.18-9.51q5.62-6.42,.13-10.7c-.29,2.24-.58,4.52-.77,5.97-3.02,.64-5.71,.44-6.76,1.66-.98,1.14-.21,3.78-.21,5.96,3.26-1.25,5.52-2.12,7.77-2.98Zm-237.91-130.64c-4.83,2.09-8.51-1.95-12.98-3.15q1.52,9.25,4.1,11.68c1.95-1.39,4.11-2.63,5.86-4.29,1.22-1.16,1.89-2.91,2.77-4.41,1.42-.15,2.84-.31,6.1-.66-3.41-1.19-5.24-1.82-7.06-2.46-.17,.33-.35,.66-.52,1,.58,.77,1.16,1.53,1.75,2.3Zm-30.98,133.95c-.4-2.71-.79-5.42-1.35-9.22-2.93,1.38-5.78,2.72-9.89,4.65,2.44,1.81,4.38,3.24,6.14,4.54-.46,2.74-1.89,6.61-1.07,7.17,4.93,3.36,.12,6.09-.37,8.75,1.84,1.59,3.37,2.91,5.36,4.64,1.68-1.44,3.14-2.7,3.5-3-1.42-2.21-2.72-3.37-2.88-4.66-.52-4.24-2.46-8.58,.32-12.75,.23,1.72,.46,3.45,.69,5.17,.58,0,1.17,0,1.75-.01,.38-1.91,.75-3.82,1.14-5.77-1.15-.15-1.65-.34-2.1-.25-.45,.1-.83,.48-1.24,.74Zm-86.97-77.49c3.2-6.58,5.5-13.16-.33-20.96-.64,2.71-1.51,4.53-1.38,6.27,.35,4.91,1.12,9.78,1.73,14.67,4.59-.54,3.03,4.43,5.39,5.97,1.5,.19,3.05,.38,5.21,.65-1.1,2.27-1.88,3.88-2.61,5.4,4.93,3.19,6.85-1.04,9.88-3.44-3.24-4.78,.92-7.9,3.63-11.67-2.09-1.98-3.85-3.64-5.59-5.3q.06-4.71-2.72-8.37c-.12,3.48-1.81,6.9,2.9,8.22-2.12,3.62-4.23,7.24-6.68,11.42-2.71-1.75-5.45-4.84-9.42-2.85Zm66.1-71.71c-3.2,2.41-5.76,4.3-8.28,6.24-1.57,1.21-3.65,2.2-4.52,3.82-4.39,8.17-11.16,15.15-12.18,25.05-.6,5.85-3.8,12.03-2.56,17.3,1.56,6.67-.57,13.81,3.54,20.14,3.97,6.11,6.16,13.47,10.54,19.2,7.41,9.7,17.56,16.08,28.53,21.68,16.44,8.4,33.21,5.87,50.06,3.6,5.01-.67,9.66-3.69,14.63-5.08,4.09-1.15,5.78-3.46,5.69-7.58-3.76-3.72-7.18-7.74-11.24-10.95-5.95-4.7-12.94-8.15-15.88-15.94-.63-1.67-2.86-2.72-4.34-4.07-2.92-2.64-7.03-4.74-8.52-8.03-4.45-9.83-11.41-17.94-17.69-26.35-7.14-9.54-13.31-19.58-19.7-29.55-2.19-3.42-2.82-8.79-8.06-9.48Zm38.08-124.47c-3.44,1.96-4.27,3.44-2.51,6.96,4.77,9.56,8.97,19.44,16.46,27.43,2.26,2.41,4.78,3.46,7.27,2.32,5.85-2.66,12.16-5.12,16.9-9.25,7.79-6.79,13.98-15.08,12.73-26.55-.08-.73,.05-1.51,.21-2.24,1.92-8.73-2.71-15.57-8.34-20.46-10.71-9.28-28.96-8.34-38.55-.77-3.35,2.64-6.43,6.84-7.41,10.86-.77,3.18,1.86,7.19,3.24,11.69Zm90.28,265.19c-2.15-2.9-3.84-5.17-5.62-7.57,1.03-1.6,2.06-3.2,3.03-4.7-1.93-2.31-3.6-4.31-5.26-6.3-5.07,3.65-5.37,4.02-3.36,8,1.55,3.06,3.35,5.82,2.9,9.6-.14,1.17,1.82,2.6,2.86,3.95,1.7-.93,3-1.64,5.44-2.97Zm-79.47-184.39c.2-.76,.41-1.51,.61-2.27-4.11-2.89-8.22-5.78-12.23-8.6-3.45,3.75-2.71,7.58-1.97,11.24,.43,2.09,2.84,2.96,4,1.32,2.59-3.66,5.56-4.11,9.58-1.69Zm52.04-42.48c2.73-5.22,7.86-8.02,4.72-14.88-3.29,2.05-6.37,3.96-9.89,6.15,1.8,3.04,3.21,5.42,5.17,8.73Zm194.77,216.25c-.84,5.42,2.22,10.7-.92,15.61-.33,.51,1.27,2.26,1.97,3.43,1.31-.82,3.25-1.32,3.84-2.5,2.52-5.1-3.92-9.34-1.75-14.62,.11-.27-.92-1.03-1.47-1.52-.16-.14-.47-.13-1.66-.41Zm-325.32-19.28c1.29-4.78,5.41-9.91-1.4-13.54,1.2-2.5,2.31-4.8,4.08-8.48-3.17,3.1-5.16,5.05-7.57,7.42-.32,4.91,6.34,8.43,4.89,14.61Zm69.44-131.07c-3.24,3.86-6,6.97-10.74,5.58-.26-.07-1.13,1.98-1.72,3.05,5.02-2.42,10.13,4.26,14.5-.8-.58-2.25-1.16-4.49-2.03-7.83Zm-120.15,44.36c-1.66,2.68-2.73,5.26,.02,6.86,.94,.55,3.23-1.22,4.96-1.95,.75,1.44,1.65,3.19,3.08,5.95q.41-10.54-8.07-10.86Zm217.63,31.52c-2.47,1.28-5.2,2.26-7.22,4.05-.49,.43,1.39,3.53,2.2,5.44q7.65-3.83,5.02-9.5Zm-48.45,71.92c-.32,.21-.63,.42-.95,.62,.15,3.08,.29,6.16,.44,9.19q8.87-8.68,7.19-14.91c-1.27,3.32-2.4,6.28-3.78,9.89-.86-1.42-1.22-2-1.58-2.59-.44-.73-.88-1.47-1.32-2.2Zm-94.94-1.09q3.3,8.48,9.43,6.3c-1.93-7.27-2.79-7.9-9.43-6.3Zm-.41,12.73c-.94,6.86,.13,8.23,6.79,9.41q-.03-6.9-6.79-9.41Zm186.42-12.54c-.66-.66-1.32-1.32-1.98-1.98-2.11,1.3-5.06,2.13-6.13,4.02-1.36,2.41-.92,5.58,2.07,6.96,2.18-3.25,4.11-6.12,6.04-8.99Zm-109.27-135.48c-3.9-5.72-5.55-5.68-9.05-.22,2.7,2.83,5.56,2.24,9.05,.22Zm150.41,166.52c1.32,2.46,2.38,4.45,3.7,6.92,2.36-2.84,6.28-4.38,4.14-7.73-2.07-3.24-4.67-.1-7.84,.8Zm-107.35-99.18c-3.35-2.29-5.48-3.75-7.6-5.2q-3.13,2.72-2.08,6.64c2.75-.41,5.54-.82,9.68-1.44Zm73.3,83.73c-2.71-3.94-6.08-4.08-9.95-3.02-.71,2.72-.91,4.92,2.71,4.5,2.35-.28,4.65-.93,7.23-1.48Zm-62.4-232.71c-1.8,7.1-1.78,7.15,3.44,8.91-1.01-3.25,2.53-7.55-3.44-8.91Zm-25.67,119.12c2.41-2.92,4-4.89,2.08-7.46-1.34-1.79-3.17-2.02-5.43-.28,.97,2.25,1.93,4.46,3.35,7.74Zm22.15-148.99c-2.08,7.13-.51,9.46,5.09,8.85-1.56-2.72-2.94-5.12-5.09-8.85Zm79.74,285.07c3.09-2.14,8.41-.81,9.94-6.29-4.78,.41-8.91,.78-9.94,6.29Zm-135.6-213.23c3.3-2.74,5.24-4.28,3.92-7.21-.84-1.86-1.16-4.73-4.89-3.07,.27,2.82,.54,5.74,.97,10.28Zm-85.23,213.46c3.42,1.07,6.05,1.9,9.12,2.87,.33-1.74,.58-3.06,1.13-5.92-3.46,3.17-6.88-1.86-10.25,3.05Zm139.44-244.61c-7.77-.73-9.65,.46-9.17,4.93,2.7-1.45,5.42-2.91,9.17-4.93Zm-82.15,108.92c.56,3.49,.84,5.25,1.19,7.47,1.83-.86,3.05-1.43,5.15-2.42-2.1-1.67-3.49-2.78-6.35-5.05Zm-61.36,104.07c-.67-.07-1.34-.14-2.02-.21-.17,2.27-.35,4.54-.63,8.29,4.16-3.25,4.45-5.5,2.65-8.08Zm102.07-198.75q-4.9,5.53-3.08,8.38c3.7-1.71,3.35-4.78,3.08-8.38Zm-82.88,18.92c.08-.61,.15-1.22,.23-1.84-1.34-.44-3.62-1.56-3.87-1.22-1.08,1.5-1.57,3.42-2.91,6.79,3.34-1.9,4.94-2.82,6.55-3.73Zm106.67,60.58c1.99-2.12,4.74-3.49,2.22-6.83-2.98,1.32-5.21,2.62-2.22,6.83Zm7.37,119.4c.64-.2,1.29-.4,1.93-.6-.6-3.04,.86-6.75-3.94-9.18,.76,3.69,1.38,6.74,2.01,9.78Zm-176.92-8.37c-1.08,2.57-2.15,5.14-3.75,8.95q5.45-3.1,3.75-8.95Zm253.02,35.49c-3.17,4.59-.05,5.12,2.57,5.75,.37,.09,.99-.83,1.85-1.61-1.46-1.36-2.75-2.57-4.42-4.13Zm-204.26-46.76c-1.19-2.63-2.03-4.5-3.02-6.71q-2.88,4.14,3.02,6.71Zm46.14-171.59c-.59,.33-1.18,.66-1.77,.99,.66,1.23,1.05,2.83,2.07,3.58,.67,.49,2.24-.24,4.63-.62-2.36-1.89-3.65-2.92-4.93-3.95Zm-73.18,83.77c.86-1.77,1.79-2.78,1.63-3.59-.17-.9-1.33-1.61-2.05-2.41-.64,.87-1.74,1.72-1.77,2.62-.03,.84,1.06,1.73,2.19,3.37Zm362.53,79.27q-3.76,4.06-1.95,7.16c.38-.29,1.03-.53,1.09-.87,.36-2.08,.59-4.19,.86-6.29Zm-420.61-32.9c.32,3.31,.49,5.06,.67,7.02q3.81-2.11-.67-7.02Zm37.31,.91c1.11,3.8,1.89,6.46,2.66,9.12,.62-.21,1.25-.41,1.87-.62-1.35-2.49-.58-5.68-4.53-8.5Zm208.62,2.1c-.91-3.21-1.56-5.5-2.21-7.79-1.12,2.79-2.22,5.58,2.21,7.79Zm-117.2-55.25c1.44,1.44,2.88,2.88,4.52,4.53q2.36-5.21-4.52-4.53Zm24.6,141.53c1.42-2.65,2.23-4.16,3.2-5.96-1.51-.81-2.65-1.42-5.02-2.7,.69,3.31,1.11,5.29,1.82,8.67Zm-70.1-30.78q4.62,1.81,5.83-2.41c-2.25,.93-4.04,1.67-5.83,2.41Zm29.82-3.28q4.99,2.78,7.19,.53-3.28-1.42-7.19-.53Zm123.07-3.4q-.33,5.9,4.38,4.59c-1.26-1.32-2.35-2.46-4.38-4.59Zm7.93-21.61c-2.87,4.87-2.76,5.2,1.45,8.19-.44-2.47-.8-4.53-1.45-8.19Zm193.77-31.6c-1.43,1.79-2.44,3.04-3.78,4.72q4.18,.04,3.78-4.72Zm-385.93-61.39c-1.83-.96-2.91-1.8-4.1-2.01-.49-.09-1.22,1.16-1.85,1.8,1.06,.76,2.04,1.73,3.22,2.18,.43,.16,1.33-.92,2.72-1.96Zm135.59-26.97c-3.09-3.26-4.94-3.68-7.55-1.7,2.23,.5,4.08,.92,7.55,1.7Zm-117.83-103.42q-2.25,5.65,2.65,5.46c-.87-1.79-1.64-3.38-2.65-5.46Zm-38.1,226.39c-.68,.09-1.35,.18-2.03,.27,.23,1.61,.47,3.21,.7,4.82,.82-.18,1.64-.36,2.46-.54-.38-1.52-.76-3.03-1.14-4.55Zm393.48-3.07c.83,2.04,1.66,4.09,2.48,6.13,1.33-2.92,1.74-5.47-2.48-6.13Zm-240.88-184.16c.24,2.31,.36,3.44,.56,5.39,1.94-1.26,3.19-2.07,5.39-3.5-2.45-.78-3.74-1.19-5.95-1.89Zm-26.04,22.08c1.76,1.04,2.97,1.75,4.9,2.89-.27-2.43-.42-3.81-.65-5.87-1.57,1.1-2.65,1.86-4.25,2.98Zm41.79,145.5c.55,.2,1.1,.39,1.65,.59,.36-1.71,.81-3.42,1-5.15,.04-.33-.99-.78-1.62-1.25-.38,2.14-.71,3.98-1.03,5.82Zm176.9,71.61c-.28,.84-.55,1.67-.83,2.51,1.51,.52,3.02,1.06,4.56,1.47,.08,.02,.76-1.63,.68-1.68-1.42-.84-2.92-1.55-4.41-2.3Zm-202.9-153.74c1.81,.94,3.24,1.68,5.27,2.73v-5.74c-1.93,1.1-3.36,1.93-5.27,3.01Zm158.53,139.07c-.79,1.28-1.51,2.01-1.7,2.86-.24,1.09-.06,2.27-.06,4.64,1.19-2.39,1.94-3.62,2.4-4.95,.18-.52-.29-1.27-.64-2.55Zm-111.9-298.57c.5,.02,.99,.04,1.49,.06,.06-1.38,.12-2.75,.19-4.13-.5-.02-.99-.04-1.49-.06-.06,1.37-.12,2.75-.18,4.12Zm-138.95,243.04c-.32,2.3-.54,3.97-.85,6.23q3.45-2.26,.85-6.23Zm65.88-57.54c.65,.58,1.3,1.16,1.94,1.75,.77-1.2,1.55-2.39,2.26-3.62,.02-.03-.97-.83-1.09-.74-1.09,.8-2.08,1.72-3.11,2.61Zm37.67,37.47c-.41,1.7-1.01,2.77-.7,3.2,.59,.83,1.69,1.3,2.58,1.93,.36-.74,1.2-1.7,.98-2.17-.42-.92-1.44-1.56-2.86-2.95Zm22.5-39.16q3.8-1.09,1.48-4.35c-.54,1.58-.95,2.8-1.48,4.35Zm-134.82-21.64c-.08-.69-.15-1.39-.23-2.08-1.35,.27-2.7,.54-4.05,.81,.08,.49,.15,.98,.23,1.47,1.35-.07,2.7-.13,4.05-.2Zm140.38,64.84c-.47,2.22-.81,3.82-1.15,5.42,3.42-.95,4.94-2.3,1.15-5.42Zm-11.97-61.97c-1.68-.81-2.66-1.57-3.7-1.66-.49-.04-1.09,1.21-1.64,1.87,.95,.61,1.84,1.47,2.88,1.72,.48,.12,1.25-.94,2.46-1.93Zm96,124.06c.28-.56,.56-1.12,.85-1.68-1.08-.77-2.15-1.55-3.23-2.32-.27,.86-1,2.22-.71,2.49,.81,.75,2.03,1.05,3.09,1.52Zm-259.8-112.73c-.47-.1-.94-.19-1.41-.29-.31,1.33-.62,2.66-.93,3.99,.52,.11,1.05,.22,1.57,.33,.26-1.35,.51-2.69,.77-4.04Zm101.32,115.63c-.24,2.41-.37,3.75-.53,5.45q4.23-2.07,.53-5.45Zm30.65,29.94c.64,.04,1.28,.08,1.92,.11v-3.96c-.41-.04-.82-.08-1.23-.12-.23,1.32-.45,2.65-.68,3.97Zm33.91-35.37v6.25c3.61-1.74,3.35-3.42,0-6.25Zm-104.25-267.57q-1.78,3,1.45,4.53c-.55-1.72-.94-2.94-1.45-4.53Zm-45.73,188.95c-1.03-3.52-1.84-5.67-5.26-3.19,1.8,1.09,3.21,1.95,5.26,3.19Zm164.94-3.23c-.26-.41-.53-.81-.79-1.22-.95,.65-1.91,1.29-2.86,1.94,.27,.34,.71,1.02,.78,.98,.99-.51,1.92-1.12,2.87-1.7Zm-13.15-.99c.56,.31,1.11,.62,1.67,.93,.8-1.73,1.59-3.46,2.39-5.2-.45-.23-.89-.45-1.34-.67-.9,1.65-1.81,3.29-2.71,4.94Zm-107.68-70.73c.44-.02,.88-.04,1.31-.06-.09-1.53-.18-3.05-.27-4.58-.43,.02-.86,.04-1.29,.06,.08,1.52,.16,3.05,.25,4.57Zm69.4-49.55c-.86,1.58-1.38,2.54-1.96,3.6,1.41,.44,2.45,.77,4.24,1.32-.84-1.81-1.39-3.02-2.27-4.92Zm37.62,166.14c-.61-1.69-1.12-3.14-1.73-4.82q-3.14,3.67,1.73,4.82Zm-62.97,60.3c.23,.25,.46,.5,.69,.76,.77-.56,1.54-1.11,2.32-1.67-.4-.47-.8-.94-1.2-1.41-.6,.77-1.2,1.55-1.81,2.32Zm26.93-4.79c-.51,1.07-1.07,1.83-1.19,2.65-.06,.4,.67,.93,1.04,1.39,.65-.8,1.36-1.57,1.87-2.45,.07-.12-.89-.84-1.72-1.6Zm-11.21,3.51c.37-.54,.75-1.09,1.12-1.63-1.07-.61-2.14-1.23-3.24-1.79-.02-.01-.7,1.02-.62,1.1,.86,.83,1.81,1.56,2.74,2.33Zm82.14-283.25c-.38-.43-.77-.86-1.15-1.29-.77,.86-1.54,1.72-2.31,2.57,.29,.29,.58,.58,.88,.87,.86-.72,1.73-1.44,2.59-2.16Zm-88.63,256.06c-.45-.5-.89-.99-1.34-1.49-.8,.92-1.61,1.83-2.41,2.75,.25,.29,.51,.58,.76,.87,1-.71,1.99-1.43,2.99-2.14Zm-105.47-135.61c-.32-.22-.64-.43-.97-.65-.6,.77-1.21,1.54-1.81,2.32,.5,.35,1.01,.71,1.51,1.06,.42-.91,.85-1.82,1.27-2.73Zm31.81,4.91c.45,.05,.89,.1,1.34,.15,.15-1.17,.29-2.35,.44-3.52-.48,0-1.36-.06-1.38,.03-.21,1.1-.29,2.22-.4,3.33Zm70.9,154.9c.16-.68,.32-1.35,.48-2.03-1.53-.23-3.06-.46-4.59-.7-.08,.42-.16,.85-.23,1.27,1.45,.49,2.89,.97,4.34,1.46Zm-96.52-153.13c.59-.06,1.18-.11,1.78-.17-.21-1.1-.37-2.22-.68-3.29-.04-.15-.84-.08-1.29-.11,.07,1.19,.13,2.37,.2,3.56Zm73.94-62.42c.33-.62,.65-1.24,.98-1.85-1.18-.61-2.36-1.22-3.54-1.83-.29,.49-.57,.99-.86,1.48,1.14,.74,2.28,1.47,3.42,2.21Zm87.62-.89c-1.24-1.16-1.87-1.75-2.5-2.33-.58,.66-1.28,1.26-1.68,2.01-.11,.21,.68,1.28,1.05,1.28,.79,0,1.58-.45,3.13-.96Zm154.98,228.92c.42-.14,.84-.28,1.25-.42-.31-.96-.62-1.92-.92-2.88-.44,.15-1.27,.41-1.26,.45,.26,.96,.6,1.91,.93,2.85Zm-254.79-280.65c.14,.59,.28,1.18,.42,1.77,1.15-.48,2.31-.92,3.41-1.49,.11-.06-.16-.85-.26-1.3-1.19,.34-2.39,.68-3.58,1.02Zm-47.29,92.41c-.3-.67-.48-1.08-.66-1.49-.55,.35-1.16,.65-1.62,1.1-.1,.1,.39,1.08,.49,1.06,.61-.13,1.19-.42,1.79-.66Zm325.5,123.94c-.42,.57-.84,1.13-1.26,1.7,1.13,.76,2.25,1.52,3.38,2.29,.32-.45,.64-.9,.96-1.34-1.02-.88-2.05-1.76-3.07-2.64Zm-166.05-37.15c.62-.14,1.25-.27,1.87-.41-.4-1.23-.81-2.46-1.21-3.68-.38,.09-.76,.18-1.14,.27,.16,1.28,.32,2.55,.48,3.83Zm-33.05-.56c-.38,.1-.77,.21-1.15,.31,.21,1.03,.43,2.06,.64,3.08,.62-.28,1.25-.56,1.87-.84-.45-.85-.91-1.7-1.36-2.55Zm-138.09,33.33c-.38,.24-.76,.47-1.14,.71,.54,1.05,1.08,2.11,1.62,3.16,.54-.37,1.09-.75,1.63-1.12-.71-.92-1.41-1.83-2.12-2.75Zm127.21,36.2c.25-.62,.49-1.24,.74-1.85-1.32-.42-2.64-.84-3.97-1.26-.13,.46-.46,1.27-.37,1.32,1.16,.66,2.39,1.21,3.6,1.8Zm-64.36-127.74c-1.4-1.02-2.06-1.59-2.81-1.95-.1-.05-1.09,1.07-.97,1.35,.31,.73,.91,1.49,1.6,1.82,.34,.16,1.12-.6,2.18-1.22Zm-25.8-131.98c-.32,.15-.64,.3-.96,.45,.41,1.07,.82,2.13,1.23,3.2,.4-.17,.8-.33,1.21-.5-.49-1.05-.98-2.1-1.47-3.14Zm43.58,142.68c-.08-.32-.17-.64-.25-.97-1.3,.26-2.59,.51-3.89,.77,.13,.47,.26,.93,.4,1.4,1.25-.4,2.5-.8,3.75-1.2Zm119.06,122.99c-.46-.06-.93-.12-1.39-.18-.16,.86-.52,1.74-.43,2.58,.06,.65,.67,1.25,1.82,3.19v-5.59Zm-224.02-10.4c-.3,.3-.61,.61-.91,.91,.88,.93,1.75,1.86,2.63,2.79,.4-.5,.81-.99,1.21-1.49-.98-.74-1.95-1.48-2.93-2.21Z"/><path  d="M1976.55,618.76c-1.86,4.11-3.33,7.14-4.6,10.25-1.22,3-3.48,4.02-6.52,4.07-15.2,.24-30.39,.61-45.59,.75-2.7,.02-5.41-.77-8.1-1.28-1.22-.23-2.49-1.18-3.58-.98-6.97,1.32-13.26-1.43-19.7-3.11-4.8-1.25-9.51-2.87-14.25-4.36-.71-.22-1.32-.88-2.02-.96-17.12-2.12-32.11-9.98-46.89-18-5.57-3.02-9.73-8.55-15-12.26-9.12-6.42-15.54-14.97-22.3-23.69-7.99-10.32-12.34-22.04-17.5-33.57-1.32-2.94-2.72-5.96-4.68-8.48-4.25-5.47-3.93-12.07-5.23-18.29-.66-3.16-.72-6.78-2.39-9.32-4.97-7.56-2.83-16.03-3.68-24.02-1.19-11.1-2.21-22.4-1.42-33.49,.68-9.65-2.03-19.46,1.33-28.95,.24-.67,.13-1.49,.05-2.22-1.9-16,2.88-31.22,5.71-46.62,3.3-17.92,10.63-34.33,20.93-49.32,2.92-4.25,6.77-7.85,10.14-11.79,3.38-3.95,6.57-8.08,10.1-11.89,1.83-1.98,4.21-3.45,6.37-5.12,.79-.61,1.8-.99,2.43-1.72,7.44-8.57,11.32-11.51,20.95-16.04,1.56-.73,2.81-2.1,4.32-2.98,2.33-1.36,4.78-2.51,7.16-3.81,4.52-2.47,8.98-5.08,13.56-7.43,3.12-1.6,5.43-6.1,10-3.06,8.67-1.93,18.05-.64,25.98-5.95,4.87-3.26,10.28-3.61,15.91-2.49,1.67,.33,3.41,.62,5.08,.5,9.21-.68,18.39-1.93,27.6-2.13,6.43-.14,12.89,1.13,19.34,1.67,6.17,.52,12.37,.76,18.53,1.43,4.92,.53,9.85,1.26,14.67,2.38,6.99,1.63,13.93,3.54,20.81,5.59,8.6,2.56,17.13,5.38,25.68,8.08,2.14,.68,4.93,.75,6.28,2.17,4.38,4.62,10.22,6.47,15.75,8.34,7.85,2.65,13.51,8.35,20.27,12.47,3.18,1.94,3.71,5.47,2.73,8.69-3.48,11.43-7.56,22.68-10.86,34.16-3.37,11.71-5.97,23.64-9.17,35.4-.82,3.01-1.98,6.54-4.18,8.41-3.72,3.14-8.39,5.14-12.68,7.59-.42,.24-1.09,.52-1.43,.35-5.7-2.76-11.72,1.03-17.67-1.15-4.54-1.66-8.55-3.72-10.33-7.99-2.87-6.88-5.09-14.05-7.14-21.23-.55-1.91,.51-4.27,.89-6.86-6.48,.21-12.14-1.84-16.92-6.16-.55-.5-1.18-.99-1.86-1.24-9.76-3.52-19.54-7.01-29.31-10.5-7.24,1.9-14.35-2.76-21.88-.02-3.3,1.2-8.69-2.16-11.31-.52-3.64,2.27-7.37,3.43-11.1,3.76-9.15,.81-15.65,5.99-23.12,10.56-10.44,6.38-16.14,15.66-20.48,25.79-5.06,11.81-10,23.95-9.13,37.47,.31,4.84-.35,9.92-1.58,14.63-3.02,11.63-2.03,23.52-1.33,35.05,.89,14.83,2.26,29.75,5.33,44.5,2.55,12.2,7.41,23.22,13.6,33.59,5.38,9.01,13.73,15.59,23.23,20.42,2.21,1.12,4.09,2.89,6.32,3.94,2.61,1.23,5.41,2.08,8.18,2.95,1.63,.51,3.36,.69,5.03,1.12,1.21,.31,2.38,1.1,3.57,1.13,14.62,.27,29.33,4.35,43.81-1.22,5.32-2.05,11.32-2.87,16.04-5.81,8.96-5.58,18.32-11.11,22.16-22.12,2.12-6.09,4.93-11.94,7.21-17.98,1.79-4.73,10.84-10.15,15.74-9.19,1.92,.38,3.98,.33,5.77,1.01,4.82,1.83,9.54,1.84,14.57,.8,3.31-.68,6.13,1.99,5.65,5.28-1.51,10.43,3.35,19.52,5.55,29.17,2.04,8.96,3.87,17.97,5.81,26.96,.32,1.46,.64,2.93,1.09,4.36,2,6.36,4.15,12.68,6.03,19.08,1.21,4.12-1.49,8.79-6.19,11.59-4.28,2.55-8.32,5.57-12.78,7.76-6.22,3.05-12.93,5.13-19.06,8.33-8.48,4.43-17.37,7.62-26.58,9.93-6.98,1.75-14.03,3.26-21.12,4.42-4.06,.66-7.84-.46-10.56-4.13-1.55-2.1-3.58-3.86-6.02-6.43Zm-197.48-141.3c-4-1.53-7.61-3.1-11.35-4.22-1.01-.3-2.43,.75-3.66,1.18,.66,1.19,1.2,2.47,2.04,3.5,.29,.36,1.41,.24,2.07,.06,3.73-1.02,3.38,1.95,3.57,3.91,.11,1.08-1.44,2.44-1.17,3.35,.42,1.4,1.54,3.16,2.78,3.6,2.02,.72,2.16-1.11,2.17-2.71,0-.65,.47-1.3,.73-1.96,.42,.22,.84,.44,1.26,.67,.32,1.48,.64,2.96,1.17,5.37,2.03-2.23,3.53-3.89,6.17-6.79-8.08,1.22-3.42-4.27-5.78-5.96Zm46.25,38.42c-.73-1.1-1.27-2.57-1.74-2.55-6.08,.31-7.68-3.32-8.24-8.48-.34-3.19-2.41-5.25-7.01-5.46,1.88,3.51,3.21,6.66,5.12,9.41,2.87,4.12-.92,7.31-.73,10.17-2.37,1.4-4.13,2.43-5.81,3.42,1.27,3.37,2.69,3.13,4.74,1.58,4.13-3.12,7.58-7.38,13.67-8.1Zm199.11,80.37c3.34-5.59-1.95-8.74-3.68-13,2.42-1.03,4.48-2.23,1.6-5.69-1.51,1.73-3.34,3.23-4.31,5.16-.63,1.25-.48,4.26,.17,4.54,4.05,1.76,4.03,5.82,6.22,8.99Zm10.3-4.43q-.35,6.62,5.5,10.07c.85-7.24,.63-7.65-5.5-10.07Zm-84.88,30.47h9.51c.18-1.89,.33-3.49,.5-5.2q-9.42,1.19-10.01,5.2Zm-151.58-216.61c.52,4.02,.98,7.63,1.63,12.75,3.42-4.27,.09-9.26,4.52-11.16-.66-.95-1.24-2.6-2.01-2.7-1.28-.17-2.69,.67-4.14,1.11Zm99.8,164.97c2.8-1.08,5.11-1.97,7.86-3.03-1.33-2.3-2.33-4.03-3.41-5.88-3.91,2.21-5.17,4.72-4.45,8.91Zm-106.99-228.97c-2.04,5.83-1.15,9.55,1.15,9.59,1.77-1.52,3.35-2.86,5.55-4.74-2.33-1.69-4.17-3.02-6.69-4.84Zm206.77,266.61c2.74-6.42,2.39-7.36-4.18-11.87,1.57,4.47,2.67,7.59,4.18,11.87Zm9.68-53.14q-1.99,5.42,4.48,7.04c-1.86-2.92-3.17-4.98-4.48-7.04Zm-99.89,34.87c2.56-2.46,3.74-5.14,3.5-9.03-6.4,4.36-6.45,4.49-3.5,9.03Zm-94.53-39.65c2.06,1.41,3.7,2.54,5.75,3.94,.83-2.02,1.34-3.26,1.84-4.48-2.55-1.6-4.62-3.08-7.59,.54Zm-18.13-49.58c-2.98-.48-5.96-.95-9.04-1.44q.99,3.88,9.04,1.44Zm.02,8.37c1.71,5.05,3.1,5.25,7.53,1.54-2.42-.49-4.58-.94-7.53-1.54Zm256.95,74.75q4.51,4.4,7.58,0h-7.58Zm-78.62,4.08c2.18,2.8,3.97,3.68,6.7,2.67q-2.27-3.46-6.7-2.67Zm-170.52-36.91c.21,.52,.43,1.04,.64,1.57,1.91-.86,3.82-1.72,5.68-2.66,.04-.02-.31-1.46-.77-1.71-3.21-1.73-4.01,1.27-5.55,2.8Zm71.25-210.45c1.22-3.77-.37-5.97-3.84-7.27-2.02,4.35,3.02,4.64,3.84,7.27Zm94.82,277.74c2.72-2.12,3.27-3.92,1.37-5.62-.58-.51-2.1,.03-3.54,.11,.82,2.08,1.42,3.6,2.17,5.51Zm-128.2-38.98c-2.99,2.71-1.48,4.7,.18,7.54,.51-2.03,.98-3.33,1.11-4.66,.06-.61-.55-1.29-1.29-2.88Zm208.58-14.25c3.25-3.09,3.47-4.82-.44-7.78,.18,3.13,.28,4.85,.44,7.78Zm-31.11-5.71c.63,2.56,1.12,4.55,1.73,7.04,1.65-2.92,4.43-5.48-1.73-7.04Zm-53.63-241.71c-.36-.57-.72-1.13-1.08-1.7-1.12,.79-2.25,1.59-3.37,2.38,.38,.52,1.04,1.53,1.11,1.49,1.16-.65,2.24-1.42,3.34-2.17Zm-130.07,76.51c2.43-2.4,3-4.35-1.03-5.5,.42,2.24,.72,3.87,1.03,5.5Zm35.48,202.75c.57,.37,1.13,.73,1.7,1.1,.29-.9,.82-1.8,.81-2.7,0-.75-.62-1.5-.96-2.25-.71,.49-1.74,.85-2.04,1.52-.26,.59,.29,1.54,.48,2.34Zm18.57,3.25c.66,.1,1.31,.2,1.97,.3v-4.2c-.34-.05-.68-.1-1.01-.15-.32,1.35-.64,2.7-.96,4.05Zm-18.5-62.55c.01-.39,.02-.78,.04-1.17-1.48-.08-2.97-.15-4.45-.23-.01,.47-.03,.93-.04,1.4h4.46Zm-66.13-18.82c-.6,.25-1.19,.49-1.79,.74,.59,1.19,1.18,2.38,1.77,3.57,.41-.21,1.19-.52,1.16-.63-.31-1.24-.74-2.46-1.14-3.68Zm24.21-35.32c-1.49-1.16-2.6-2.02-4.22-3.28-.43,3.74,.47,4.85,4.22,3.28Zm141.61,86.5c-.5,4.5,.06,5.93,4.32,3.74-1.08-.93-2.15-1.86-4.32-3.74Zm-96.51,15.33c3.89-1.62,3.91-1.63,2.95-4.54-.08-.24-.72-.29-1.25-.48-.54,1.6-1.06,3.13-1.7,5.01Zm176.03-10.69c.51-.67,1.01-1.34,1.52-2.01-1.19-.62-2.37-1.27-3.6-1.8-.12-.05-.87,.97-.83,1.01,.93,.97,1.92,1.88,2.91,2.8Zm-73.34,5.31c.58-.04,1.16-.09,1.74-.13-.25-1.25-.5-2.49-.75-3.74-.33,.04-.66,.08-.99,.13v3.74Zm-159.62-225.01c.65-.67,1.3-1.35,1.95-2.02-1.1-.37-2.19-.82-3.32-1.07-.28-.06-.69,.49-1.04,.76,.8,.78,1.61,1.56,2.41,2.34Zm-35.41,57.71c-.51-.37-1.02-.74-1.53-1.11-.83,1.19-1.66,2.37-2.5,3.56,.45,.32,.9,.63,1.35,.95,.89-1.13,1.78-2.27,2.67-3.4Zm62,19.53c.4,.41,.8,.81,1.21,1.22,.76-.8,1.52-1.61,2.29-2.41-.53-.4-1.45-1.22-1.53-1.14-.74,.69-1.33,1.53-1.96,2.33Zm207,97.84c.53-.74,1.25-1.34,1.15-1.72-.13-.48-.9-.98-1.46-1.08-.31-.05-1.13,.81-1.06,1.07,.16,.56,.75,.99,1.37,1.73Zm-242.41-63.6c.25-.5,.51-.99,.76-1.49-.95-.49-1.89-1.01-2.88-1.41-.09-.04-.5,.74-.77,1.14,.96,.59,1.92,1.18,2.88,1.76Zm56.67,142.86c.49-.23,.98-.45,1.47-.68-.68-1.38-1.36-2.76-2.05-4.14-.44,.21-.88,.42-1.32,.63,.63,1.4,1.26,2.8,1.89,4.19Zm-40.57-112.27c-.75-.45-1.31-1.06-1.79-1.01-.56,.06-1.05,.71-1.58,1.1,.66,.54,1.33,1.08,1.99,1.62,.39-.48,.78-.96,1.37-1.7Z"/><path  d="M2328.52,604.14c-2.06,6.27-6.34,9.35-13.34,8.91-.59,4.8-4.33,6.45-8.28,7.38-3.74,.88-6.66,3.05-9.94,4.72-4.71,2.4-10.26,3.15-15.32,4.56-1.57-2.45-2.97-4.64-4.37-6.83-.52,.17-1.03,.35-1.55,.52-.25,2.11-.51,4.21-.84,6.9-2.57,1.05-5.44,2.81-8.53,3.33-4.84,.81-9.82,.78-14.74,1.1-3.42,.22-6.84,.59-10.26,.63-9.64,.1-19.28,.23-28.91,0-5.06-.12-5.06-.45-6.59-5.11-.17,.01-.43-.05-.51,.04-4.68,5.54-10.45,5.81-16.74,3.46-6.52-2.44-12.74-5.81-20.13-5.29-2.09,.15-4.44-.83-6.4-1.83-11.3-5.75-22.71-11.31-33.66-17.67-4.59-2.67-8.5-6.82-12.06-10.87-5.26-5.97-11.51-11.79-14.55-18.87-6.54-15.19-13.63-30.17-17.62-46.52-4.99-20.43-7-41.15-7.74-61.9-.51-14.32,3.1-28.59,6.65-42.63,2.88-11.39,8.68-21.22,14.79-30.94,2.36-3.75,5.44-7.05,8.19-10.55,.31-.39,.9-.71,.98-1.13,1.23-6.93,7.42-9.3,12.11-12.85,8.04-6.1,16.15-12.21,24.79-17.38,5.18-3.1,11.34-4.69,17.22-6.44,5.06-1.5,6.42-.61,9.15,3.75,.86,1.37,1.9,2.62,3,4.11,3.36-2.28,2.74-5.22,2.53-7.81-.3-3.65,1.15-5.89,4.63-6.59,3.88-.77,7.81-1.36,11.74-1.82,5.2-.61,10.56-.45,15.62-1.62,11.57-2.66,22.97-3.89,34.4,.42,.46,.17,1.17,.52,1.4,.34,5.91-4.86,11.8,.68,17.83,.26,5.61-.4,11.45,2.84,17.23,4.36,4.35,1.14,8.72,2.25,13.14,3.09,4.72,.91,8.8,2.53,12.8,5.58,4.05,3.08,9.35,4.57,14.19,6.54,6.11,2.48,11.22,5.72,15.32,11.37,5.33,7.34,12.39,13.4,18.04,20.53,3.47,4.38,5.73,9.73,8.49,14.67,.47,.84,.63,1.85,1.07,2.71,7.76,15.36,11.93,31.57,12.62,48.82,.36,8.95,1.81,17.85,2.75,26.78,.16,1.47,.21,2.96,.34,4.82-1.57,.18-2.9,.33-4.23,.49,.05,.54-.07,1.14,.17,1.47,4.83,6.58,2.75,13.85,2.14,20.97-.11,1.22-.8,2.44-.72,3.63,.92,14.46-4.42,27.52-9.77,40.34-5.48,13.13-12.23,25.74-22.25,36.21-1.03,1.08-2.32,2.27-2.64,3.61-1.52,6.34-6.15,8.01-11.79,8.39-.53-1.88-1.07-3.76-1.61-5.63-1.81,2.96,.09,4.16,1.78,5.47Zm-179.98-89.66c.68-1.3,1.37-2.6,2.58-4.92-4.78,1.54-2.43,3.54-2.38,5.12-2.76,4.03-2.57,4.65,1.94,6.45-.43,1.06-.9,2.11-1.27,3.19-.18,.53-.18,1.12-.3,2.03,1.71-.27,3.01-.47,5.29-.83-1.77-1.91-2.83-3.05-3.9-4.2-.66-2.28-1.32-4.56-1.97-6.84Zm-15.85-76.21c-1.03,.52-2.05,1.03-3.08,1.55,.49,.76,1.02,2.18,1.48,2.15,2.31-.12,2.8,1.17,3.34,3.03,.44,1.52,1.57,2.83,2.75,4.83,1.5-3.45,2.62-6.04,3.79-8.75-3.1-1.1-5.8-2.05-8.5-3.01q2.74-1.63-1.33-4.31c.63,1.83,1.09,3.17,1.56,4.51Zm142.31,28.44c.28-.1,.56-.2,.84-.3-1.53-5.66-3.95-11.25-4.38-16.99-.75-9.99-4.15-19.01-8.93-27.38-4.03-7.06-10.85-12.65-18.69-13.96-7.28-1.22-14.66-3.55-22.77-1.2-6.56,1.91-13.18,3.65-18.43,7.66-4.41,3.36-10.09,5.17-12.94,10.89-5.71,11.45-8.36,23.51-9.09,36.11-.13,2.19,.81,4.44,.71,6.63-.27,5.5-1.46,10.71-.42,16.55,1.47,8.23,.54,16.91,.54,25.39,0,14.65,1.83,29.01,9.77,41.63,5.79,9.21,11.89,18.92,25.43,17.04,.94-.13,2.03,.16,2.92,.55,6.78,2.99,13.76,2.3,20.62,.75,13.49-3.04,23.88-10.13,28.4-23.84,4.04-12.28,7.04-24.77,6.3-37.9-.17-2.92,.63-5.89,1-8.83,.25-1.97,.87-3.95,.78-5.9-.45-8.98-1.08-17.95-1.65-26.92Zm62.72-62.99c.04-.63,.09-1.26,.13-1.89-3.33-.65-6.72-1.05-9.96-2.01-4.82-1.42-8.29-.27-11.77,3.53-1.71,1.86-5.37,1.93-8.75,3,.62,1.17,1.04,3.34,2.21,3.86,2.34,1.06,5.16,1.83,7.65,1.54,1.7-.2,3.51-2.68,5.13-.6,.87,1.12,.32,3.34,.4,4.86,3.76,.29,8.01,2.65,10.11-2.62,.26-3.49-7.92-4.58-2.36-9.68h7.23Zm-190.72,49c-1.07,4.44-1.77,7.32-2.64,10.92,7.23-2.01,11.71,2.45,17.93,4.52-.8-2.53-1.37-4.05-1.76-5.63-.34-1.39-1.2-3.46-.6-4.14,3.42-3.87,.03-6.5-.94-10.8-3.4,4-4.01,11.66-11.98,5.12Zm147.76,138.58c.91-2.28,1.68-4.23,2.45-6.17-2.47-3.71-5.9-7.25-7.3-11.46-1.27-3.81-3.16-4.12-6.17-4.02-.54,4.43-3.97,8.44-1.09,13.25,6.92-1.66,6.88,6.71,12.11,8.4Zm-75.35,21.98c-.58-4.7,2.74-9.6-1.62-13.76-1.62,.67-3.32,1.54-5.12,2.07-1.64,.48-4.14-.98-4.57,2.14,9.31,3.76,9.27,3.76,8.65,14.11-.11,1.81,.22,3.65,.38,5.99,5.22-1.83,8.47-4.48,11.42-9.66-3.36-.33-5.84-.57-9.13-.89Zm91.07-16.45c-1.44-2.64-2.6-4.77-4.57-8.39-1.32,5.41-4.34,5.67-8.17,5.31-3.58-.33-6.63,2.77-7.66,6.29,3.4,.54,6.82,1.08,10.24,1.62,1.92-4.12,6.61-2.45,10.16-4.84Zm-153.27-126.05c-.59-.15-1.19-.3-1.79-.44-1.2,2.82-2.56,5.58-3.58,8.47-1.67,4.72-1.5,4.88,4.77,7.17,1.4-2.75,2.83-5.58,4.24-8.37-1.33-2.49-2.5-4.65-3.66-6.82Zm25.45,112.83c-4.91-.21-5.94,3.37-7.95,7.07,6.87,1.44,7.77,6.1,6.11,12.63,2.62-1.83,4.14-2.9,4.45-3.11,3.99-7.11-4.83-10.21-2.61-16.59Zm115.84-2.42c5.24-2.66,10-5.7,13.68,.45,3.15-1.35,5.76-2.48,9.88-4.25-2.77-1.42-4.32-2.87-5.9-2.9-4.7-.09-9.42,.24-14.11,.66-2.78,.25-4.68,1.58-3.54,6.04Zm-145.46-41.84c-5.85,1.32-4.93,6.58-7.78,10.23,2.76,.66,4.74,1.14,6.63,1.59,2.59-4.93,2.7-6.03,1.15-11.83Zm177.76-148.25c-1.84,1.3-3.35,2.37-5.46,3.87,6.92,3.63,13.47,1.47,19.82,2.09-2.09-1.41-4.87-3.38-6.45-2.68-4.07,1.81-6-.09-7.9-3.28Zm-105.08,203.66c-.08-.86-.17-1.71-.25-2.57-3.99,.43-7.97,.85-12.39,1.33v4.01c1.23-.28,2.45-.54,3.68-.83,1.48-.35,2.94-.74,4.43-1.06,1.51-.33,3.03-.59,4.54-.88Zm121.55-157.63c.16,0-.32-.13-.44,.02-2.61,3.49-3.11,7.41-2.53,12.43,2.28-1.71,3.97-2.98,5.54-4.17-.92-2.97-1.71-5.5-2.58-8.28Zm-167.73,131.97c-2.54,4.36-5.49,7.47-2.71,12.07,5.66-3.56,5.85-4.27,2.71-12.07Zm118.04,48.01c.57-3.15,1.15-6.3,1.77-9.7-7.3,1.35-7.53,2.18-1.77,9.7Zm-13.13-12.64c.97-1.76,2.1-2.84,2.02-3.83-.31-3.87-2.16-6.65-7.02-7.93,1.76,4.15,3.15,7.42,5,11.76Zm57.71-131.84c-.41,4.58,2.54,6.56,5.34,10v-11.11c-1.44,.3-3.08,.64-5.34,1.11Zm-103.6,118.22c4.77-8.16,4.72-9.53,0-12.41v12.41Zm-51.19-25.86c2.54,1.93,4.08,3.1,7.04,5.35-.25-4.49-.4-7.07-.54-9.65-.65-.27-1.3-.54-1.95-.81-1.24,1.39-2.48,2.79-4.55,5.11Zm15.87,58.1c.29,.27,.58,.55,.87,.82,2.55-1.23,5.1-2.47,7.79-3.77-.71-1.69-1.33-3.17-2.56-6.1-2.52,3.74-4.31,6.4-6.1,9.05Zm121.69-109.76c2-2.19,3.8-3.3,4.06-4.7,.27-1.42-.67-3.29-3.24-2.46-1.01,.32-2.36-.39-4.49-.82,1.26,2.75,2.06,4.48,3.67,7.99Zm-151.02,85.11c-1.35-.97-2.67-1.92-5.12-3.68,.78,4.16-3.69,6.82-.09,10.1,1.81-2.24,3.4-4.19,5.21-6.42Zm22.68,9.11c.95,5.73,2.09,7.56,5.25,7.92,1.79,.2,3.69-.14,3.04-2.48-2.76-1.81-5.25-3.45-8.3-5.45Zm-77.53-39.76c.48,5.77,1.85,7.88,4.48,6.84,.55-1.31,1.25-2.98,2.05-4.89-2.3-.69-4.13-1.23-6.54-1.95Zm234.47-83.83c-.59,.16-1.17,.32-1.76,.48q.23,8.54,6.1,10.96c2.24-4.23-3.55-2.17-3.63-4.65-.07-2.27-.46-4.53-.71-6.79Zm-44.72,80.87q3.73,4.15,9.75,.62c-3.05-1-5.88-3.84-9.75-.62Zm-139.15-59.3c.67-4.48-1.74-7.03-4.35-9.48,.08,3.62-.95,7.74,4.35,9.48Zm-73.68,4.92c-2.44,1.15-4.12,1.94-7.54,3.55,3.67,1.17,5.66,1.8,8.37,2.66-.33-2.52-.5-3.73-.83-6.21Zm92.95,106.69c2.05,1.38,3.35,2.25,4.65,3.11,.76-1.35,1.62-2.65,2.2-4.07,.16-.41-.52-1.16-.99-2.11-1.78,.93-3.39,1.78-5.85,3.07Zm118.4-224.3c3.18-3.71,2.48-6.5,.25-9.75-2.84,3.31-1.7,6.09-.25,9.75Zm-209.41,100.1c-4.63,2.4-4.82,4.38-3.09,6.44,.52,.61,2.03,.39,3.09,.55v-6.99Zm121.23,89.97c-4.45,1.46-4.35,3.78-2.22,6.15,.61,.69,2.46,.27,4.02,.38-.64-2.31-1.14-4.12-1.8-6.53Zm-5.14-199.92c3.49-.56,5.65-.9,7.8-1.24,.02-.51,.04-1.01,.06-1.52-1.77-.92-3.53-1.83-5.66-2.94-.68,1.77-1.11,2.9-2.19,5.7Zm116.93,201.48c-1.21-1.15-1.95-2.42-2.73-2.44-.88-.02-1.78,1.08-2.67,1.7,.85,1.03,1.59,2.19,2.63,2.96,.21,.16,1.54-1.22,2.77-2.22Zm28.39-131.22c-2.92,.28-5.45,.53-8.3,.8,3.75,4.09,4.77,4,8.3-.8Zm-114.48-53.02c-.42-3.11-.7-5.18-.98-7.26-.56,.07-1.13,.14-1.69,.21-.12,2.21-3.15,4.69,2.67,7.04Zm75.91,155.78c1.47-2.78,2.14-4.05,2.82-5.33-1.11-.53-2.23-1.07-4.21-2.02,.48,2.54,.76,4.02,1.4,7.35Zm-179.35,2.92c-2.99,2.21-2.03,4.03,.18,6.27,2.03-2.41,3-4.31-.18-6.27Zm207.53-156.28c-.66,.03-1.31,.06-1.97,.08,.14,1.82,.28,3.65,.41,5.47,.52-.04,1.03-.08,1.55-.12v-5.44Zm-175.2,34.75q1.31-3.48-1.57-4.92c.57,1.8,1.07,3.36,1.57,4.92Zm-72.98,1.17c-3.21-.77-4.18,.27-3.84,2.39,.16,1.02,1,1.93,2.06,3.86,.75-2.62,1.19-4.18,1.78-6.26Zm-10.83,10.87c1.08-1.55,2.15-2.41,2.17-3.3,.02-.82-1.09-1.67-1.7-2.5-.81,.76-2.08,1.4-2.29,2.3-.18,.75,.88,1.8,1.83,3.5Zm63.15-86.76c.99,2.14,2.03,4.29,5.34,3.31-.88-2.98-2.28-4.36-5.34-3.31Zm156.03,184.81c-.27,.56-.54,1.13-.81,1.69,1.25,.52,2.51,1.03,3.76,1.55,.34-.99,.67-1.99,1.1-3.23h-4.05Zm-190.7,15.29c1.21,.9,2.07,1.96,2.54,1.81,.75-.25,1.64-1.24,1.73-2.02,.09-.69-.81-1.51-1.28-2.27-.84,.7-1.68,1.39-2.99,2.48Zm88.28,34.17c.61,0,1.22-.01,1.83-.02,.92-1.96,1.33-3.87-1.83-5.91v5.93Zm17.58,32.78c.38,.06,.76,.12,1.14,.18,.29-1.84,.58-3.68,.87-5.53-.34-.05-.69-.1-1.03-.16-.33,1.83-.66,3.67-.98,5.5Zm-26.93-42.27c-.42,1.58-.84,3.16-1.47,5.55,3.94-1.53,2.97-3.47,1.47-5.55Zm-21.42-54.26c-.87-.6-1.49-1.27-2.23-1.43-.3-.07-1.3,1.13-1.18,1.47,.27,.75,1.04,1.33,1.61,1.98,.48-.53,.95-1.06,1.8-2.01Zm-48.98,4.09c1.08-1.68,3.93-3.24,0-5.83v5.83Zm220.9-45.34c-.39-.57-.77-1.14-1.16-1.71-1.12,.92-2.23,1.84-3.35,2.77,.24,.35,.47,.7,.71,1.05,1.27-.7,2.53-1.4,3.8-2.11Zm-231.55-10.12c-.52-.36-1.05-.72-1.57-1.08-.65,1.2-1.32,2.4-1.9,3.64-.04,.09,.64,.52,.99,.8,.83-1.12,1.65-2.23,2.48-3.35Zm33.74-8.29c.58-.04,1.17-.08,1.75-.12-.1-1.71-.19-3.41-.29-5.12-.56,.03-1.13,.06-1.69,.09,.08,1.72,.15,3.43,.23,5.15Zm-10.77-10.48c.39-.05,.78-.11,1.17-.16-.24-1.59-.49-3.18-.73-4.78-.14,.03-.29,.05-.43,.08v4.86Zm-4.83,106.37c-2.4-.77-3.3-1.38-3.95-1.18-.82,.25-1.44,1.17-2.14,1.8,.2,.34,.4,.68,.6,1.01,1.3-.39,2.6-.77,5.49-1.64Zm31.58-25.94c-.54,.18-1.08,.36-1.62,.53,.57,1.75,1.14,3.5,1.71,5.24,.55-.18,1.1-.37,1.66-.55-.58-1.74-1.17-3.49-1.75-5.23Zm-42,42.14c.34-.2,.69-.4,1.03-.59-.5-1.11-1.01-2.21-1.51-3.32-.56,.28-1.12,.57-1.68,.85,.72,1.02,1.44,2.04,2.16,3.06Zm14.93-182.82c.35-.05,.7-.1,1.05-.15v-3.86c-.35,0-.7,.02-1.05,.03v3.98Zm204.5-.86c-.4-.12-.79-.24-1.19-.35-.46,1.08-.92,2.17-1.38,3.25,.63,.2,1.27,.41,1.9,.61,.22-1.17,.44-2.34,.66-3.51Zm-73.69,13.53c-.55-.13-1.09-.25-1.64-.38-.33,1.05-.71,2.09-.94,3.16-.02,.11,.77,.4,1.18,.61,.47-1.13,.94-2.26,1.4-3.39Zm-107.29,161.73q-3.65,1.04-1.13,3.54c.38-1.19,.72-2.26,1.13-3.54Zm174.8-67.79c-.49-.17-.99-.34-1.48-.51-.44,1.29-.87,2.57-1.3,3.86,.48,.16,.96,.33,1.44,.49,.45-1.28,.9-2.56,1.35-3.84Zm-15.6,3.22c-.38,.03-.76,.06-1.15,.08,.18,1.2,.36,2.41,.54,3.61,.2-.03,.41-.05,.61-.08v-3.61Zm-140.9,100.34c2.34-1.65,3.59-2.69,.95-5.39-.37,2.11-.59,3.36-.95,5.39Zm-83.61-147.79c-.31-.02-.63-.05-.94-.07-.18,1.23-.37,2.46-.55,3.69,.39,.05,.78,.1,1.16,.15,.11-1.25,.22-2.51,.33-3.76Zm50.67,3.25c-.79-.92-1.19-1.39-1.58-1.85-.66,.57-1.36,1.09-1.91,1.75-.07,.09,.73,1.26,1.03,1.22,.74-.1,1.43-.61,2.46-1.12Zm51.28,106.1c.66-.07,1.31-.13,1.97-.2-.33-1.19-.66-2.38-.99-3.57-.44,.1-.88,.2-1.32,.3,.12,1.16,.23,2.31,.35,3.47Zm-37.23,29c.15-.31,.3-.62,.45-.93-1.05-.65-2.09-1.3-4.19-2.61,.88,1.67,1.04,2.4,1.48,2.71,.64,.44,1.49,.57,2.25,.83Zm83.25-.95c.55,.18,1.1,.37,1.65,.55,.45-1.21,.89-2.41,1.34-3.62-.84-.17-1.68-.33-2.52-.5-.16,1.19-.31,2.38-.47,3.57Z"/><path  d="M980.89,543.39c4.26,3.55,3.7,7.88,3.73,11.69,.11,11.87-.34,23.75-.41,35.63-.04,6.17-1.86,10.86-7.54,14.35-6.11,3.75-11.13,9.4-17.42,12.74-8.3,4.41-17.11,8.61-26.2,10.52-5.9,1.24-10.98,4.26-16.87,5.32-5.11,.92-10.03,2.36-15.37,2.69-10.42,.63-20.77,2.32-31.15,3.56-1,.12-2.01,.4-2.99,.31-7.43-.68-14.84-1.42-22.26-2.15-1.98-.2-3.98-.74-5.93-.56-8.64,.77-16.98-1.38-25.02-3.65-8.55-2.41-17.54-3.22-25.63-7.68-12.13-6.67-24.61-12.68-34.45-22.75-2.63-2.69-4.09-5.29-1.22-9.14,1.44-1.92,1.92-5.21,1.54-7.67-.48-3.09-4.61-4.18-8.94-3.05-6.77,1.77-7.16,1.34-10.29-4.52-6.38-11.95-10.66-24.42-11.55-38.06-.66-10.15-3.13-19.99-2.95-30.42,.17-10.35-.44-20.86-.73-31.3-.08-2.92-1.52-5.85-1.41-8.73,.34-8.39,.84-16.81,1.87-25.14,.92-7.37,2.62-14.63,4.02-21.94,2.19-11.41,7.39-21.44,14.17-30.74,1.32-1.82,2.62-3.67,3.71-5.64,5.31-9.6,13.52-16.12,22.55-21.92,3.33-2.14,6.18-5.01,9.3-7.49,1.16-.92,2.38-1.83,3.7-2.48,5.14-2.5,10.46-4.67,15.49-7.37,6.53-3.52,13.72-4.25,20.78-5.49,7.8-1.37,15.64-2.51,23.48-3.64,1.97-.28,4.02,0,6.01-.21,4.17-.45,8.31-1.16,12.49-1.58,3.22-.33,6.52-.83,9.69-.46,5.41,.63,10.74,1.91,16.1,2.88,1.48,.27,3.06,.87,4.44,.58,7.13-1.5,13.49,2,20.25,2.87,2.1,.27,4.2,.55,6.28,.92,1.2,.21,2.65,.28,3.51,1,5.73,4.72,13,5.63,19.47,8.44,6.49,2.82,13.95,4.59,18.44,11.41,2.4,3.64,6.8,5.91,9.62,9.35,4.42,5.4,8.3,11.25,12.37,16.94,7.43,10.42,9.96,22.73,12.54,34.83,1.44,6.74,1.28,13.89,1.28,20.85,0,8.2-.46,16.4-.97,24.59-.2,3.2-1.06,6.36-1.7,9.52-.19,.96-1.24,2.19-.93,2.73,2.91,4.92-.18,9.15-1.3,13.62-.6,2.39-.59,5.05-1.68,7.16-1.44,2.81-3.16,6.43-5.69,7.5-4.44,1.89-9.56,2.61-14.45,2.91-7.86,.48-15.76,.22-23.65,.27-1.99,.01-4.2,.6-5.93-.07-8.28-3.2-16.72-1.74-25.17-1.58-8.88,.17-17.78-.3-26.67-.44-6.69-.11-13.38-.14-20.07-.21-7.39-.08-14.78-.42-22.16-.16-7.48,.26-14.96,.88-22.39,1.81-4.27,.54-5.24,3.62-4.01,8.63,1.3,5.3,2.22,10.7,3.16,16.08,.15,.86-.46,1.85-.72,2.78,1.6,.55,3.89,.61,4.69,1.73,7.91,11.15,18.4,18.7,31.31,22.83,4.22,1.35,8.7,2,13.1,2.65,4.43,.65,9.2,.1,13.3,1.55,3.41,1.21,6.67,1.22,9.3,.03,4.62-2.09,9.18-1.64,13.86-1.53,.74,.02,1.69,.58,2.17,.28,6.97-4.32,15.12-2.43,22.47-4.37,5.88-1.55,11.47-4.22,17.17-6.43,1.4-.54,2.69-1.43,4.13-1.81,10.22-2.68,19.97-6.52,29.32-11.43,1.52-.8,3.27-1.15,4.98-1.73Zm-162.26-54.2c-2.36,1.4-3.39,2.99,.1,6.02-.14-2.72-.22-4.47-.29-6.19,2.02-.02,4.47,1.05,5.6-2.1-2.76-.81-4.58-.35-5.41,2.27Zm26.91-83.65c-.7,.93-.59,3.27-4.08,3.67-3.26,.38-6.26,3.58-9.2,5.79-1.13,.85-1.52,2.71-2.67,3.52-7.29,5.13-9.63,13.01-11.94,20.94-.76,2.61-1.31,5.31-2.31,7.83-2.07,5.22-.67,8.27,4.73,9,6.09,.82,11.99,1.57,18.39,.39,7.61-1.41,15.67-.65,23.52-.43,7.22,.2,14.4-.46,21.71,1.12,5.63,1.22,11.81-.25,17.74-.14,6.06,.11,9.77-2.43,8.85-8.03-.69-4.2,.55-7.2,2.28-9.81-1.49-4.56-3.35-8.46-4-12.55-1.64-10.31-9.71-14.83-17.32-19.4-3.87-2.32-8.8-3.42-13.36-3.87-5.05-.5-10.25,.33-15.38,.67-5.42,.36-10.82,.82-16.96,1.3Zm72.09,184.2c-6.63,3.6-6.72,4.76-.93,9.47,6.11-3.23,12.59-1.2,18.91-1.31-2.73-2.94-2.75-3.25-6.44-3.08-4.84,.23-8.83-.97-11.55-5.08Zm-60.13-6.66c-.22-2.46-.44-4.92-.66-7.3q-7.69-.87-9.81,3.92c4.79-2.23,8.02-.94,10.47,3.38Zm75.93,23.68c.92,3.85-3.07,8.62,2.38,11.44,2.59-7.04,2.43-8.08-2.38-11.44Zm-93.57,2.93c1.38-1.53,2.09-2.59,3.05-3.32,.93-.7,2.13-1.05,3.97-1.91-4.67-1.59-8.09-2.15-11.08,1.65,1.49,1.32,2.77,2.45,4.06,3.58Zm-11.49-29.18c.18-3.33,.29-5.41,.49-9.13-3.25,2.5-5.25,4.05-8.15,6.29,2.87,1.07,4.59,1.71,7.66,2.85Zm115.15-7.13c1.1,3.4,1.92,5.94,2.74,8.48,.37-2.97,4.67-6.84-2.74-8.48Zm-64.94,26.59c-.68-4.35-3.55-4.16-6.44-4.97-.3,5.86,3.24,4.61,6.44,4.97Zm-3.32-22.79c-.69,.33-1.39,.66-2.08,.99,1.05,2.31,2.09,4.62,3.5,7.73,3.93-5.25-1.7-5.85-1.42-8.71Zm-128.65-21.31c.82-.12,1.63-.24,2.45-.36-.31-2.13-.62-4.26-.92-6.39-.51,.05-1.02,.1-1.53,.15v6.6Zm170.64-106.89c1.71,2.81,2.78,4.57,3.85,6.32q.32-5.5-3.85-6.32Zm-141.2,125.33c-2.54,2.4-3.67,3.46-5.39,5.09,2.23,.65,3.69,1.08,5.39,1.58v-6.67Zm164.75-194.3c.86-.32,1.73-.65,2.59-.97-.54-1.61-1.09-3.21-1.63-4.82-.88,.33-2.54,.83-2.51,.95,.38,1.65,.99,3.24,1.55,4.85Zm-175,196.17c-1.27,1.34-2.59,2.12-2.58,2.89,0,.91,1.05,2.4,1.84,2.55,.87,.16,1.97-.92,2.98-1.45-.63-1.12-1.26-2.24-2.23-3.98Zm140.87,6.76c-.14,2.77-.28,5.53-.41,8.3,4.03-2.7,2.05-5.53,.41-8.3Zm29.9-87.69c-.36-.69-.73-1.38-1.09-2.07-1.33,.68-2.67,1.37-4,2.05,.47,.75,1.24,2.19,1.35,2.14,1.3-.58,2.51-1.38,3.74-2.12Zm-12.82-6.23c-4.45-2.36-5.09,.36-5.99,2.54-.1,.23,.38,.7,.77,1.35,1.51-1.13,2.98-2.22,5.22-3.9Zm-69.97,126.1c1.1-2.92,1.7-4.5,2.67-7.08-4.5,.94-5.29,2.49-2.67,7.08Zm117.58-163.66c1.71-1.31,2.75-2.1,4.94-3.78-2.99-.2-4.47-.29-6.5-.43,.57,1.54,.89,2.4,1.56,4.2Zm-171.13,144.39c.61,.34,1.22,.68,1.83,1.02,1.7-1.35,2.71-3.01,1.83-7.09-1.68,2.78-2.67,4.42-3.66,6.06Zm-8.03,.17q-2.77,3.34-.89,7.5c.4-3.37,.65-5.44,.89-7.5Zm175.49-173.11c.96-1.96,2-3.49,1.77-3.72-.85-.83-2.13-1.23-4.37-2.36,1.08,2.52,1.61,3.76,2.61,6.08Zm-106.6,192.92c.43-.29,.86-.58,1.29-.87-.86-1.22-1.72-2.44-2.58-3.66-.38,.26-.76,.52-1.14,.78,.81,1.25,1.63,2.5,2.44,3.75Zm-116.66-109.59c.57-.33,1.14-.67,1.71-1-.63-1.11-1.26-2.21-1.9-3.32-.56,.4-1.65,1.02-1.59,1.15,.47,1.11,1.16,2.12,1.78,3.17Zm228.69-67.67c.43,.03,.86,.07,1.3,.1,.15-1.36,.31-2.72,.46-4.09-.51-.04-1.01-.08-1.52-.12-.08,1.37-.16,2.73-.24,4.1Zm-66.73,137.4c-.4,.39-.81,.77-1.21,1.16,.81,.93,1.59,1.9,2.49,2.74,.07,.07,.96-.74,1.47-1.14-.92-.92-1.83-1.84-2.75-2.77Zm-56.95,15.47c.3,.07,.6,.13,.9,.2,.38-1.37,.77-2.73,1.15-4.1-.46-.1-.91-.2-1.37-.3-.23,1.4-.46,2.8-.68,4.21Zm123.82-133.14c.43,.42,.85,.84,1.28,1.25,.86-.97,1.72-1.94,2.58-2.92-.33-.3-.66-.6-1-.9-.95,.85-1.91,1.71-2.86,2.56Zm-68.31-73.65c.73-.99,1.4-1.61,1.65-2.38,.1-.3-.94-1.36-1.1-1.29-.75,.35-1.51,.88-1.96,1.55-.14,.21,.68,1.06,1.4,2.12Zm58.74,15.95c-1.04-.47-1.65-.99-2.11-.88-.59,.14-1.06,.79-1.59,1.22,.43,.49,1.03,1.46,1.25,1.38,.76-.27,1.38-.92,2.45-1.72Zm-198.76,28.62c-.29-.19-.58-.38-.88-.56-.4,.28-1.11,.55-1.12,.85-.02,.65,.31,1.32,.49,1.98,.5-.75,1-1.51,1.5-2.26Zm141.15,170.31c-.58-1.07-.89-1.65-1.21-2.22-.74,.46-1.61,.82-2.15,1.45-.17,.2,.53,1.65,.86,1.66,.74,.03,1.49-.49,2.5-.89Zm70.78-29.93c.16-.66,.31-1.31,.47-1.97-1.23-.14-2.46-.3-3.7-.37,0,0-.3,1.18-.23,1.21,1.13,.44,2.3,.77,3.46,1.13Zm-106.45-79.39c.45,.13,.89,.25,1.34,.38,.49-1.58,.98-3.15,1.47-4.73-.44-.13-.89-.25-1.33-.38-.49,1.57-.99,3.15-1.48,4.72Z"/><path  d="M2715.63,624.67c-.99,1.26-1.64,3.03-2.74,3.37-10.2,3.16-20.5,5.89-31.34,3.7-.24-.05-.47-.3-.69-.28-8.52,.52-17.1,.57-25.53,1.71-10.37,1.4-20.28,.74-29.91-3.48-.79-.35-1.82-.13-2.74-.19-5.64-.36-11.31-.54-16.92-1.17-2.15-.24-4.21-1.41-6.26-2.29-5.73-2.46-11.23-5.8-17.2-7.26-6.05-1.48-8.37-4.78-8.8-10.37-.09-1.21-.31-2.41-.55-4.18-1.41,.07-2.7-.19-3.68,.24-6.93,3.03-11.36-.96-15.62-5.42-2.39-2.51-4.87-4.96-6.98-7.69-2.73-3.53-5.4-7.16-7.6-11.03-3.07-5.39-5.18-11.4-8.69-16.45-2.19-3.15-.94-6.92-3.77-10.04-2.4-2.65-2.55-7.37-3.64-11.18-1.91-6.63-3.77-13.28-5.67-19.91-.27-.94-1.07-1.92-.91-2.76,2.34-13.03-.75-25.84-1.4-38.74-.22-4.43,.49-8.92,.87-13.37,.38-4.47,.56-8.99,1.42-13.38,1.83-9.38,3.44-18.88,6.26-27.98,3.47-11.17,7.98-22.03,12.3-32.91,.66-1.67,2.89-2.65,4.13-4.16,2.85-3.48,5.53-7.11,8.3-10.66,1.23-1.57,2.22-3.83,3.83-4.48,5.75-2.32,8.56-7.76,12.97-11.46,5.16-4.32,10.21-8.27,17.18-9.76,4.45-.95,8.23-4.74,12.66-6.16,6.57-2.11,13.41-3.38,20.2-4.74,6-1.21,12.04-2.4,18.12-2.96,7.92-.73,16.24,.47,23.76-1.54,8.63-2.31,16.74,3.16,24.99-.09,9.95,2.15,19.87,4.45,29.85,6.4,6.13,1.2,12.02,2.76,17.84,5.23,5.38,2.28,8.39,5,7.44,11.06-.14,.86,.38,1.83,.74,3.39,1.45-.78,2.56-1.21,3.45-1.9,2.79-2.15,5.73-2.03,8.4-.2,3.26,2.23,6.32,4.78,9.3,7.38,3.72,3.24,7.27,6.69,10.91,10.03,5.45,5,8.43,11.57,11.45,18.08,7.42,15.97,9.18,33.03,9.23,50.33,.01,4.44-.96,8.88-1.54,13.32-.16,1.23-.88,2.46-.76,3.64,.43,4.19,2.44,8.77,1.33,12.43-1.22,4.03-2.82,7.84-2.92,12.17-.16,7.14-4.24,12.67-8.09,18.18-.88,1.26-2.92,2.38-4.45,2.41-13.16,.22-26.17,2.64-39.51,.59-10.82-1.66-21.96-2.12-33.02-.29-3.37,.56-6.96-.37-10.45-.42-10.15-.14-20.31-.03-30.46-.31-8.45-.23-16.88-.98-25.33-1.28-5.98-.21-11.98-.11-17.97-.06-3.32,.03-5.2,1.58-4.8,5.16,.44,3.93,.37,7.99,1.39,11.76,2.28,8.44,5.46,16.46,10.87,23.63,3.83,5.07,8.8,8.47,14.2,10.73,8.8,3.69,17.86,6.45,27.67,7.47,11.86,1.23,23.41,.8,34.93-1.41,11.74-2.25,23.45-4.88,34.96-8.08,6.66-1.85,12.96-5.05,19.32-7.89,5.43-2.42,10.73-5.16,16.05-7.81,7.65-3.81,14.08,.32,14.04,8.86-.05,9.49,.27,18.98,.15,28.46-.04,2.85-.92,5.72-1.61,8.53-.29,1.19-1.41,2.21-1.56,3.39-1.59,12.03-10.35,17-20.26,20.96-2.53,1.01-5.05,2.11-7.4,3.48-8.71,5.09-18,8.42-28.01,9.86-1.91,.27-3.71,1.26-5.57,1.91-2.69,.94-4.94,.65-6.13-2.1Zm-157.45-202.27q2.1-4.55-1.38-7.61c.57,3,1,5.29,1.43,7.59-1.54,2.06-.89,3.44,1.86,4.74,.06-1.23,.38-2.22,.05-2.9-.37-.75-1.34-1.19-1.97-1.83Zm162.88,64.61l-.17-.21c1.47,1.74,2.94,3.48,4.96,5.87-1.42,2.81-3.02,6.78,.34,11.12,1.52-6.17,7.41-10.95,3.24-18.22-3.15-5.49-5.2-11.63-12.2-14.7-.69,.28-2.1,1.34-3.42,1.24-1.48-.12-3.51-.95-4.14-2.1-.63-1.16-.42-4.02,.43-4.55,6.44-4.04,4.08-10.45,5.51-16.12-8.87-.5-2.7,6.79-5.4,8.88-3.72,1.1-7.17,2.11-10.44,3.08q.53,5.02-1.44,8.05c-.51-1.43-.95-2.66-1.49-4.17-4.37,10.59-2.03,18.3,6.42,21.62-.11,1.75-.22,3.55-.28,4.54,3.41,1.2,6.06,2.81,8.75,2.89,2.74,.08,5.53-1.33,8.74-2.21,.63-1.24-3.31-3.75,.59-5Zm-14.82-33.66c.51-2.4,1.28-5.47,1.79-8.57,.37-2.21,.32-4.48,.58-6.71,.79-6.88-.3-13.26-3.6-19.5-5.17-9.77-14.25-14.22-23.57-18.48-.95-.44-2.45-.61-3.32-.16-3.92,2.04-7.62,.9-11.59,.08-3.56-.73-7.44-.83-11.03-.27-3.9,.61-7.83,1.89-11.4,3.6-7.22,3.46-14.59,6.25-20.06,13.13-7.61,9.58-11.62,20.08-12.67,31.97-.21,2.37,.38,4.54,3.45,4.76,4.97,.36,10.1,1.74,14.89,.97,13.02-2.1,26.01-.8,39.01-.84,12.17-.03,24.35,0,37.53,0Zm-13.89,164.18c-.1,1.77-.34,2.79-.19,3.75,.53,3.48,3.08,4.21,6.04,4.11,2.85-.09,4.57-.91,4.17-4.53-.37-3.36,3.64-4.29,5.16-3.77,8.27,2.8,10.66-1.61,11.81-8.43,.28-1.67,1.29-3.21,1.94-4.82,.26-.65,.46-1.33,.76-2.22-1.26-.86-2.42-1.65-3.36-2.29-1.17,.93-2.07,1.64-3.34,2.66q-.41-5.84,3.25-9.04c-3.13-6.72-3.13-6.69-10.87-5.51-.76,.12-2.06-.28-2.4-.86-2.61-4.44-5.32-1.83-8.6-.49,1.82,1.43,3.2,2.52,4.68,3.69-1.11,1.27-1.81,2.07-3,3.43,3.28,.26,5.93,.46,8.72,.68-1.98,3.89-3.75,7.36-5.79,11.37-.93-2.09-1.71-3.85-2.95-6.67-1.79,3.34-4.18,5.74-4.08,8.03,.21,4.67,1.77,9.28,2.78,13.92-2.35,.24-3.31-.3-4.75-3Zm42.66-143.97c.38-.39,.76-.77,1.15-1.16-2.16-3.15-4.48-6.21-6.42-9.49-1.19-2-2.6-4.42-2.41-6.52,.16-1.72,2.76-3.09,3.86-4.88,.77-1.25,.84-2.93,1.22-4.41-1.34-.33-3.75-1.17-3.87-.92-1.6,3.33-5.12,2.96-7.62,4.43-1.49,.88-3.16,3.17-3.07,4.72,.25,4.3,.76,8.82,2.45,12.69,.7,1.59,4.69,1.7,7.15,2.58,2.55,.92,5.04,1.97,7.56,2.96Zm-53.8-.73c-3.03,4.47-5.58,8.23-8.66,12.77,7.08,.72,7.21,5.8,8.08,10.62,1.04-2.24,1.95-4.38,1.83-6.47-.11-1.99-2.51-4.25,1.73-5.11,.65,1.35,1.28,2.66,2.35,4.88,1.11-2.52,1.79-4.06,2.96-6.69-6.27-.43-2.35-8.58-8.29-10Zm82.43-15.16c-2.13,4.67-1.85,9.32-.42,14.09,1.57,5.27,1.48,5.29,7.63,4.91,.74-2.56,1.47-5.12,2.33-8.13-8.74,.83-4.06-8.94-9.54-10.88Zm-8.12-.89c-2.51,4.59-6.27,8.25-5.88,13.85,.39,5.71,5.42-.47,6.64,2.85,.07,.19,2.53,.03,2.97-.61,.5-.71,.4-2.82-.15-3.16-4.27-2.62-3.41-6.57-3.13-10.46,.06-.81-.29-1.65-.46-2.48Zm-110.47,159.99c6.58-4.19,3.68-10.06,4.64-15.67-3.91,1.6-7,2.87-10.04,4.12,1.9,4.07,3.33,7.11,5.4,11.55Zm101.53-32.02c.73-3.97,1.55-6.58,1.54-9.18,0-1.28-1.33-3.34-2.41-3.62-1.14-.29-3.6,.88-3.91,1.89-.58,1.9-.52,4.34,.21,6.19,.65,1.63,2.58,2.76,4.56,4.73Zm-29.53-3.33c.6-.11,1.19-.22,1.79-.32,.72-3.16,1.45-6.31,2.45-10.69-2.53,1.68-3.85,2.56-5.02,3.34-1.7-1.43-3.05-2.56-4.9-4.12-3.76,7.93,5.08,7.43,5.69,11.79Zm-75.66-107.65c4.3,1.14,7.58,2.01,10.86,2.88-1.93-3.94,.33-9.33-4.68-10.43-1.76,2.14-3.39,4.14-6.18,7.55Zm-67.17-12.14c2.12-.11,3.84-.2,5.96-.31-1.51-3.5,4.52-8.4-2.18-10.99-1.26,3.76-2.42,7.23-3.78,11.31Zm-5.98,21.53c.6-.15,1.2-.31,1.8-.46-.3-1.74-.6-4.98-.89-4.98-4.52,.02-2.81-3.09-2.75-5.21,.05-1.66,.46-3.32,.71-4.98-.56-.11-1.11-.22-1.67-.32-.94,3.38-1.87,6.76-2.8,10.09,1.98,2.07,3.78,3.97,5.59,5.86Zm182.72-46.49c-2.83-1.96-5.28-3.66-8.36-5.8-.75,2.85-1.22,4.64-2.07,7.91,3.88-3.02,6.77,3.59,10.44-2.11Zm-213.91,14.14c-1.34,2.51,.24,5.65,1.92,4.69,3.29-1.9,4.69,1.93,7.17,1.44q-.84-7.03-9.1-6.12Zm224.09,33.46c-2.3-3-4.94-2.38-6-.59-1,1.69-4.2,4.17-.01,7.19,2.07-2.27,4.07-4.47,6.01-6.6Zm-156.32-102.19c-.59-.32-1.18-.63-1.77-.95-1.13,1.57-2.81,3.03-3.17,4.77-.21,1.01,1.67,2.47,2.61,3.73,.95-1.13,2.3-2.13,2.73-3.43,.39-1.2-.23-2.73-.4-4.11Zm145.76,26.55c.6,.22,1.2,.45,1.81,.67,.77-2.08,1-5.35,2.42-6,3.1-1.41,3.32-2.68,1.93-5.38-5.67,2.1-5.41,6.66-6.16,10.71Zm-130.13,187.44c1.75,3.78,2.94,6.36,4.64,10.03,1.5-2.6,3.41-4.39,3.12-5.7-.64-2.89-3.53-3.43-7.75-4.33Zm-83.68-109.86c.15,1.49-.05,2.99,.5,4.13,.62,1.29,2.04,2.17,2.84,3.4,.64,.99,.87,2.24,1.56,4.15,.79-2.83,1.31-4.68,1.8-6.46-2.19-1.7-4.22-3.28-6.71-5.22Zm45.24,102.56c-3.1,2.87-5.22,4.69-3.47,8.08,1.95-.48,3.64-.91,5.59-1.39-.6-1.91-1.17-3.7-2.11-6.69Zm105.99-6.4c.95,2.77,1.74,5.06,2.72,7.89,1.76-2.04,3.12-3.61,4.31-4.98-.83-4.31-3.1-5.01-7.02-2.91Zm-55.1,30.19c-6.37-4.13-9.52-3.9-11.94,0h11.94Zm72.65-42.57c-2.91,2.14-4.75,3.49-8.09,5.94h9.23c-.35-1.82-.61-3.16-1.14-5.94Zm-39.81,32.9c-1.32,.74-2.29,1.45-3.38,1.83-1.01,.35-2.14,.33-4.32,.63,1.79,1.97,2.84,3.14,4.06,4.49,1.56-2.2,5.09-2.43,3.64-6.94Zm-4.57,25.99c2.33-1.03,4.25-1.88,6.18-2.73-.81-1-1.55-2.78-2.44-2.86-2.87-.26-4.38,1.29-3.73,5.59Zm65.51-206.48c3.27-1.63,5.46-2.73,8.76-4.38-2.81-.94-4.33-1.44-6-2-.9,2.09-1.64,3.8-2.76,6.38Zm-173.05,86.22c4.79-2.69,4.27-4.99,0-6.9v6.9Zm2.77-104.25v7.17q4.29-2.77,0-7.17Zm7.64,30.74c-.55-.04-1.1-.07-1.65-.11-.46,2.53-.91,5.05-1.49,8.22,5.25-2.04,3.65-5.23,3.13-8.11Zm69.05,160.29c.25-.51,.5-1.02,.75-1.53q-3.78-3.34-8.17-1.41c3.07,1.22,5.24,2.08,7.41,2.94Zm10.96-3.99c-1.73,2.31-2.75,3.68-4.29,5.74,5.32,.89,5.33-1.28,4.29-5.74Zm131.2-173.33c-1.92-1.15-3.2-1.91-4.49-2.67-.46,.78-1.48,2.03-1.3,2.25,.92,1.07,2.11,1.97,3.35,2.66,.22,.12,1.16-1.04,2.43-2.23Zm-186.73,52.86c1.79-2.38,3.52-4.95,1.12-8.61-2.73,2.75-2.16,5.56-1.12,8.61Zm-3.39-66.91c.59,.19,1.18,.39,1.77,.58,.72-1.78,1.45-3.56,2.53-6.23-4.9,.97-5.31,2.97-4.3,5.65Zm185.56,49.73c.59-4.48-2.24-3.66-4.46-3.29-.59,.1-1.02,1.22-2.14,2.68,2.74,.25,4.52,.41,6.6,.6Zm-192.54,122.16c-.47-.29-.93-.57-1.4-.86-1.39,.87-2.77,1.75-4.36,2.74,.81,1.3,1.42,2.27,2.8,4.47,1.32-2.84,2.14-4.6,2.96-6.36Zm50.18-1.54c-1.71,.72-2.97,1.26-5.06,2.14,1.65,1.67,2.9,2.93,5.06,5.12v-7.26Zm102.55-93.95c1.07,2.81,2.5,4.17,5.1,3.21,.41-.15,.87-1.49,.64-1.85-1.23-1.93-2.71-3.59-5.74-1.36Zm-134.69,94.52c1.4,2.11,2.28,3.44,3.71,5.6,2.06-4.1,2.13-5.97-3.71-5.6Zm40.07-87c-2.07,.99-3.42,1.63-5.6,2.67,2.61,1.1,4.23,1.78,6.58,2.76-.39-2.17-.6-3.34-.98-5.44Zm81.12-43.85c3.03,.17,5.3-.58,5.17-4.1-1.72,1.37-3.45,2.73-5.17,4.1Zm50.96,40.54c-1.27-1.11-1.99-2.2-2.54-2.12-1.03,.16-1.95,.99-2.92,1.54,.55,.69,1.08,1.92,1.65,1.94,1.01,.03,2.04-.67,3.81-1.36Zm-11.99,104.83c-.74,.18-1.48,.36-2.22,.54,.61,1.9,1.21,3.81,1.82,5.71,.53-.14,1.07-.28,1.6-.41-.4-1.95-.8-3.89-1.2-5.84Zm-6.4-180.07c-1.23-2.81-1.84-4.2-2.45-5.59-1.12,.65-2.24,1.3-4.25,2.47,2.36,1.1,3.76,1.76,6.7,3.13Zm10.19,21v-7.1c-1.83,1.74-2.66,2.53-3.73,3.55,1.02,.97,1.83,1.74,3.73,3.55Zm-123.32,55.21c.59-.48,1.18-.96,1.77-1.44-1.39-1.38-2.77-2.75-4.16-4.13-.38,.35-.76,.69-1.14,1.04,1.18,1.51,2.35,3.02,3.53,4.53Zm-21.15,123.94c-.46-.51-.91-1.02-1.37-1.52-1.26,1.42-2.52,2.83-3.78,4.25,.41,.39,.83,.77,1.24,1.16,1.3-1.3,2.6-2.59,3.9-3.89Zm54.61-122.07c.53-2.39,.82-3.68,1.23-5.52-3.69,.92-4.26,2.22-1.23,5.52Zm-109.88-37.69c-.5,.12-1.01,.24-1.51,.36,.46,1.45,.91,2.9,1.37,4.35,.45-.13,.9-.27,1.35-.4-.4-1.43-.8-2.87-1.2-4.3Zm22.83,127.6c-.36-.25-.73-.49-1.09-.74-.7,.93-1.4,1.85-2.11,2.78,.54,.39,1.07,.78,1.61,1.16,.53-1.07,1.06-2.14,1.59-3.21Zm-11.64-126.36c-.38,.41-.76,.81-1.14,1.22,.65,.61,1.3,1.22,1.95,1.83,.44-.48,.87-.95,1.31-1.43-.71-.54-1.41-1.08-2.12-1.62Zm22,155.19c.13,2.7,.19,4.27,.33,5.83,0,.04,1.07,.19,1.31-.04,1.75-1.74,1.18-3.29-1.64-5.79Zm86.49-144.32c-.18,.44-.36,.88-.54,1.32,1.07,.43,2.13,.87,3.23,1.22,.06,.02,.38-.81,.58-1.24-1.09-.43-2.18-.87-3.27-1.3Zm-5.92-113.8c-.36,.19-.72,.38-1.07,.58,.61,1.31,1.22,2.61,1.83,3.92,.43-.23,.87-.45,1.3-.68-.69-1.27-1.37-2.54-2.06-3.81Zm.84,275.57c.5,.08,.99,.16,1.49,.24-.07-1.12-.14-2.24-.21-3.37-.2,0-.4,0-.61,0-.22,1.04-.44,2.08-.67,3.12Zm-.4-28.48c-1.36-.84-2.11-1.65-2.6-1.52-.82,.23-1.84,.95-2.05,1.68-.15,.51,1.02,2.01,1.4,1.94,.89-.17,1.65-1,3.25-2.11Zm-124-39.24c-.56,.77-1.3,1.35-1.23,1.79,.09,.53,.86,.96,1.34,1.43,.46-.48,1.26-.94,1.28-1.44,.02-.49-.75-1.01-1.39-1.78Zm36.3,35.2c-.41,.16-.82,.32-1.24,.48,0,.69-.25,1.55,.07,2.03,.37,.56,1.24,.8,2.95,1.78-.94-2.27-1.36-3.28-1.78-4.29Zm70.71-117.87c.34-.19,.67-.37,1.01-.56-.54-1.02-1.08-2.04-1.62-3.06-.37,.21-.75,.42-1.12,.63,.58,1,1.16,2,1.73,2.99Zm-99.76,17.52c.51-.07,1.02-.14,1.53-.21-.12-1.03-.24-2.06-.36-3.1-.59,.08-1.19,.15-1.78,.23,.2,1.03,.41,2.05,.61,3.08Z"/><path  d="M1027.01,316.59c-9.5-1.89-9.71-8.4-9.55-15.1,.11-4.47,.38-8.95,.26-13.42-.09-3.19-.61-6.38-1.11-9.55-.27-1.72-1.36-3.42-1.26-5.08,.33-5.42-1.4-10.25-5.53-13.27-4.33-3.17-9.42-6.63-14.49-7.19-10.91-1.21-12.99-6.36-8.77-15.39,3.86-8.28,3.25-16.92,5.49-25.2,.5-1.86,.29-3.91,.73-5.79,1.31-5.67,3.71-9.78,10.52-10.77,5.65-.83,11.03-2.48,16.95-2.02,4.59,.35,9.36-.64,13.94-1.56,3.93-.8,7.69-2.41,11.72-.53,.62,.29,1.54,.25,2.23,.04,6.49-1.99,12.96-4.07,19.44-6.09,1.41-.44,2.88-1.11,4.3-1.08,8.86,.24,17.33-1.17,25.36-5.11,1.49-.73,3.45-.72,5.19-.73,7.53-.04,14.79-1.45,22.09-3.29,9.88-2.49,15.28,1.27,17.99,11.16,2.5,9.12,5.43,18.13,7.66,27.31,.79,3.26,.32,6.9-.01,10.32-.36,3.59-2.72,5.77-6.15,6.82-1.42,.43-2.89,.76-4.22,1.39-14.12,6.64-18.31,18.95-15.86,34.93,.79,5.13,.62,10.41,.91,15.63,.27,4.73,.73,9.45,.8,14.18,.06,4.43-.33,8.87-.47,13.31-.15,4.74-.32,9.49-.33,14.23-.04,13.73-.04,27.46,.01,41.19,.07,19.87,.11,39.73,.35,59.6,.12,9.95,.93,19.89,.9,29.83-.03,9.96-.72,19.93-1.14,29.89-.46,10.96-1.03,21.92-1.35,32.88-.25,8.49-.71,16.99,1.51,25.37,.42,1.58,.11,3.56-.43,5.16-2.28,6.72,0,12.84,2.34,18.9,2.19,5.66,6.79,8.47,12.61,9.45,1.73,.29,3.46,.54,5.2,.75,8.71,1.04,9.21,1.06,7.64,11.27-1.59,10.3-4.4,20.42-6.82,30.58-.63,2.64-1.51,5.31-2.83,7.65-1.92,3.4-4.6,5.11-9.12,5.12-9.46,.04-18.9,1.46-28.37,1.8-5.4,.19-10.84-.78-16.27-.95-9.23-.28-18.47-.41-27.71-.49-10.69-.08-21.38-.02-32.07-.06-6.19-.02-12.4,.22-18.55-.29-4.94-.4-7.65-3.43-8.41-8.15-2.21-13.74-4.35-27.49-6.59-41.67,4.68-2.13,9.14-5.18,14.99-5.22,4.97-.04,8.22-3.76,10.34-7.62,1.74-3.18,2.71-7.15,2.77-10.79,.12-7.99-.61-15.98-.89-23.98-.14-4,.02-8.01-.12-12-.7-19.63,.31-39.22,1.16-58.82,.21-4.87-1.08-9.79-1.24-14.7-.14-4.2,.67-8.44,.51-12.63-.32-7.95-1.17-15.88-1.56-23.83-.42-8.64-.28-17.32-.92-25.94-.53-7.12-1.87-14.18-2.79-21.27-.26-1.98-.45-3.98-.4-5.97,.17-6.7,.72-13.4,.61-20.1-.07-4.44,.66-8.28,3.28-12.02,2.1-3,3.35-6.6,5.54-11.09Zm62.58,122.62c2.29-4.29,1.94-5.13-3.47-7.26,1.36,2.72,2.53,5.05,3.73,7.4-2.7,2.66-1.97,5.39-.2,8.14,.21-2.76,4-5.55-.07-8.28Zm.44,150.16c1.17-6-3.67-4.56-6.72-5.49,.22,1.4,.83,2.52,1.78,3.09,1.58,.94,3.38,1.52,5.08,2.25-1.63,.96-3.26,1.93-5.1,3.01,2.45,5.12,7.5,3.99,11.48,5.44-2.18-2.76-4.36-5.52-6.52-8.31Zm-33.92-2.97c-3.35,3.98-5.87,6.97-8.37,9.94,.31,.23,1.21,1.15,2.3,1.64,1.44,.65,3.39,1.71,4.46,1.2,1.16-.55,2.06-2.67,2.17-4.17,.2-2.61-.3-5.27-.56-8.61Zm51.36,22.65c-4,.22-7.18,.4-10.66,.6-1.05,2.95-1.6,5.87,.84,8.03,3-1.62,5.47-3.05,8.03-4.3,2.73-1.34,3.06-2.99,1.79-4.33Zm-57.3-151.58c-1.12-3.7,1.84-8.22-2.22-11.67-5.3,5.42,1.46,8.1,2.22,11.67Zm28.43,140.82c3.76,1.83,6.93,3.37,11.53,5.61-3.45-4.74-5.82-8-8.4-11.55-.96,1.82-1.85,3.5-3.13,5.93Zm57.8-5.32c3.05-.16,5,.28,5.95-.49,.71-.58,.14-2.73,.14-6.01-2.59,2.77-3.8,4.06-6.09,6.51Zm-35.95-177.45q-5.23,4.32-2.29,6.93c.76-2.3,1.52-4.62,2.29-6.93Zm-24.36,165.15c.51-2.89,.9-5.07,1.48-8.39-4.24,2.66-6.79,4.43-1.48,8.39Zm-33.09-158.55c-.82,.14-1.63,.29-2.45,.43,.6,2.43,1.19,4.87,1.79,7.3,.6-.11,1.2-.23,1.8-.34-.38-2.46-.76-4.93-1.14-7.39Zm41.04,195.89c-.26,.54-.51,1.07-.77,1.61q4.37,5.14,8.06,2.28c-2.62-1.4-4.95-2.64-7.28-3.89Zm-38.83-28.59c-1.88-2.59-3.73-1.73-5.28,.18-.37,.45,.03,2.34,.43,2.46,2.32,.73,4.24,.26,4.86-2.64Zm60.48-239.64v9.28c-1.04-2.8,4.62-5.69,0-9.28Zm-47.59,74.08c-4.46,2.75-4.5,3.05-1.81,7.75,.59-2.55,1.06-4.53,1.81-7.75Zm9.44,153.77c-.56,.01-1.11,.03-1.67,.04,.12,2.64,.24,5.28,.35,7.91,.44-.01,.88-.02,1.32-.03v-7.92Zm27.19-54.39c-1.53,3.38-.19,4.94,2.09,7.21,1.16-3.48-.09-5.08-2.09-7.21Zm-13.75,41.52c-.24-.63-.26-.97-.42-1.06-1.17-.66-2.35-1.3-3.58-1.85-.07-.03-.74,1.03-.72,1.05,.85,.66,1.71,1.32,2.65,1.82,.37,.2,.93,.03,2.06,.03Zm-28.29,9.07v6.21c2.4-2.81,3.42-4.46,0-6.21Zm29.46-176.9c4.11,.09,6.35-.18,6.83-4.04-2.17,1.28-3.86,2.28-6.83,4.04Zm-26.34,155.07q2.03,4.2,5.12,1.44c-1.73-.49-3.17-.89-5.12-1.44Zm23.32-44.96c-.65,.12-1.3,.23-1.95,.35,.19,1.2,.39,2.4,.58,3.6,.65-.17,1.87-.35,1.87-.5-.03-1.15-.3-2.3-.5-3.45Zm28.36,36.16c.48,.04,.97,.08,1.45,.12,0-1.19,.01-2.38-.06-3.56,0-.04-.9-.02-1.39-.02v3.47Zm-11.85-70.64c-5.17,.66-1.84,2.92-1.53,4.51,0,.05,.83-.07,1.53-.13v-4.38Zm-90.59,127.65c-.38,.32-.77,.65-1.15,.97,.9,1.06,1.8,2.12,2.71,3.18,.37-.31,.73-.62,1.1-.92-.88-1.07-1.77-2.15-2.65-3.22Zm80.11,7.34c-.64-.07-1.27-.14-1.91-.21-.19,1.42-.38,2.84-.64,4.75,4.26-.93,3.78-2.63,2.55-4.54Zm11.72-69.14c.14,.59,.28,1.18,.42,1.76,1.57-.44,3.13-.87,4.7-1.31-.09-.4-.17-.8-.26-1.2-1.62,.25-3.24,.5-4.86,.75Zm8.41-36.49c-.99-.77-1.57-1.48-2.29-1.69-.37-.11-1,.66-1.52,1.03,.52,.67,.94,1.48,1.61,1.94,.23,.15,1.07-.6,2.2-1.28Zm-52.62-62.08c.37-.57,.75-1.13,1.12-1.7-.98-.66-1.93-1.4-2.99-1.9-.14-.07-.84,1.03-1.28,1.59,1.05,.67,2.1,1.35,3.15,2.02Zm-1.37-92.32c-.46-.23-.85-.42-1.54-.77-.74,1.07-1.49,2.16-2.34,3.4,3.64,1.49,3.64-.67,3.88-2.63Zm42.43,219.7c.78,2.85,1.15,4.17,1.63,5.92,3.66-2.69,2.64-4-1.63-5.92Zm-36.47-184.19c-.51-.36-1.02-.71-1.53-1.07-.77,1.29-1.55,2.58-2.32,3.87,.51,.31,1.03,.61,1.54,.92,.77-1.24,1.54-2.48,2.31-3.73Zm-21.13,50.83c-.17-3.24-1.22-4.45-4.49-3.86,1.63,1.4,2.82,2.42,4.49,3.86Zm67.19,124.28c-.22-.38-.43-.75-.65-1.13-.93,.12-2.19-.08-2.69,.45-.59,.62-.51,1.87-1,4.13,2.19-1.75,3.26-2.6,4.33-3.45Zm-51.94-17.66c.66-.17,1.32-.34,1.98-.51-.23-1.17-.46-2.35-.68-3.52-.63,.16-1.8,.34-1.8,.47,.05,1.19,.31,2.38,.5,3.56Zm42.87,2.84c-.48,.13-.95,.26-1.43,.39,.39,1.42,.78,2.84,1.17,4.27,.4-.1,.8-.19,1.2-.29-.31-1.46-.63-2.91-.94-4.37Zm-8.77-74.19c.45,.13,.91,.27,1.36,.4,.31-1.05,.65-2.08,.87-3.15,.02-.09-.83-.35-1.27-.54-.32,1.09-.64,2.19-.96,3.28Zm24.8,12.55c-.59-.72-.99-1.21-1.4-1.71-.44,.42-1.23,.85-1.23,1.27,0,.53,.65,1.06,1.02,1.59,.48-.34,.96-.69,1.61-1.15Zm-19.73-174.22c.31-.24,.61-.48,.92-.72-.56-1.26-1.12-2.52-2.16-4.86-.54,2.03-1.15,3.04-.89,3.71,.31,.78,1.38,1.26,2.12,1.87Z"/><path  d="M2434.35,621.56c-.28,2.04-.55,4.08-1.05,7.8-2.57-2.68-3.96-4.12-5.35-5.57-.3,.11-.96,.15-1.06,.41-.75,1.93-1.38,3.91-2.05,5.87-.52-.03-1.03-.06-1.55-.09-.37-1.18-1.09-2.37-1.03-3.52,.12-2.13,.7-4.23,1.04-6.36q1.11-3.54-2.71-4.24c1.13,1.7,1.99,2.98,2.86,4.27-1.18,.2-2.63,.03-3.51,.65-7.05,5.04-9.41,5.43-17.07,2.11-.73,1.54-1.16,3.38-2.28,4.58-1.07,1.15-2.85,1.63-5.34,2.95,.37-2.86,1.08-4.79,.68-6.46-.27-1.11-2.12-1.84-4-3.32,3.3-1.88,5.92-3.36,8.86-5.03-1.22-2.2-2.29-4.12-3.46-6.24-3.09,2.89-6.02,5.64-9.99,9.35,.27,.84,.97,3.08,1.7,5.3,1.29,3.9-.02,5.81-4.04,5.87-5.54,.07-9.47-3.81-11.69-9.82-3.16-8.59-3.03-17.56-4.23-26.39-.36-2.69-1.41-5.3-1.72-7.99-.3-2.65-.07-5.35-.07-8.37,4.83-.48,8.79-.62,12.65-1.3,8.34-1.46,14.05-8.06,14.67-16.39,.88-11.73,2.02-23.43,2.72-35.17,.35-5.95,.06-11.94-.07-17.91-.19-8.64-1.26-17.21-.09-25.95,.91-6.8,.03-13.84-.1-20.77-.23-12.12-.52-24.23-.73-36.35-.18-10.23-.22-20.46-.46-30.69-.07-2.73-.08-5.7-1.14-8.11-1.53-3.47-2-6.59-.31-10.01,.31-.63,.35-1.52,.2-2.22-2.46-11.52-.31-23.2-1.21-34.79-.91-11.63-.88-23.34-1.33-35.01-.32-8.45-.44-16.93-1.26-25.33-.46-4.65-1.87-9.28-3.39-13.74-2.51-7.41-9.1-10.13-15.7-12.63-1.4-.53-2.95-.67-4.34-1.22-7.43-2.94-9.5-6.12-7.86-13.88,1.96-9.27,4.76-18.36,6.77-27.62,1.03-4.73,4.25-7.35,7.84-9.52,3.83-2.32,8.02-4.11,12.21-5.72,3.15-1.21,6.17-2,10.04-.98,4.1,1.08,8.83-.23,13.29-.54,2.23-.16,4.45-.48,6.68-.6,4.97-.28,9.78-.32,14.59-2.67,4.37-2.13,9.53-2.91,14.43-3.63,9.17-1.34,17.89-3.52,24.22-10.21,5.17,1.37,9.69,2.56,14.46,3.82,4.71-7.2,12.79-5.74,19.54-7.59,1.45-.4,4.53,1.47,5.33,3.06,2.53,5.07,4.77,10.38,6.34,15.82,2.41,8.38,4.08,16.96,6.24,25.41,1.91,7.47,1.11,9.27-5.65,13.31-4.05,2.42-8.06,5-11.69,8-4.38,3.62-7.43,8.07-6.39,14.37,.31,1.86-.47,3.89-.75,5.85-.28,1.95-.82,3.91-.83,5.86-.05,14.48,.17,28.96-.03,43.43-.2,15.21-.51,30.4-1.29,45.61-.97,18.96-.48,37.98-1.02,56.97-.26,9.26-1.8,18.48-2.08,27.74-.33,10.96,.18,21.94,.14,32.92-.03,8.73,.95,17.74-.88,26.12-1.77,8.11-.18,15.65,0,23.45,.2,8.25-.39,16.56,.32,24.76,.49,5.59,2.79,11,3.98,16.56,1.76,8.24,8.94,11.33,14.65,15.8,.87,.68,2.39,.57,3.62,.77,6.43,1.07,7.08,1.74,6.4,8.35-.58,5.7-1.42,11.39-2.39,17.05-1.09,6.39-2.34,12.76-3.73,19.08-1.39,6.3-4.2,8.33-10.46,8.16-13.07-.36-26.11-2.04-39.24-.28-3.8,.51-7.87-.06-11.68-.84-3.23-.66-6.03-.9-9.21,.44-1.46,.62-3.71-.62-5.51-1q.16-6.42-3.5-5.84c.71-1.98,1.39-3.95,2.25-6.43,2.91-.18,6.15-1.25,9.22-4.1-4.67-.76-8.61-1.4-12.62-2.04-.48-2.87,4.31-5.05,.9-8.04,3.08,.66,5.48-1.6,5.17-3.63-.61-3.98-4.81-1.98-8.46-4.39,1.63,3.84,2.55,6.01,3.47,8.18-2.04,.33-4.08,.66-5.43,.87-1.68,3.17,5.28,4.97,.04,7.82,2.8,3.53-1.19,5.03-2.73,7.26,3.18,1.45,7.74-.6,8.21,4.53Zm58.99-39.56q2.21-4.11-1.1-10c-1.2,4.08,.85,6.96,1.22,9.97,1.17,2.63,2.34,5.26,3.27,7.36q.62-4.83-3.39-7.33Zm-27.14-27.03l.1,.21c1.66-1.76,3.32-3.52,5.1-5.41q-3.41-7.97,1.13-13.75c-.62,3.83-1.63,7.77,3.16,10.66,.65-1.57,.86-3.13,1.74-4.03,3.85-3.98,3.91-3.9-1.14-6.04-1.09-.46-2.1-1.12-3.14-1.68,.7-3.34,4.89-6.22,1.35-10.29-1.94-.12-4.16,.26-5.85-.5-1.69-.77-2.86-2.68-5.65-5.49,1.22,6.12,2.11,10.62,3.02,15.2-2.73,.83-4.53,1.37-6.43,1.95-.43-2.81,.6-5.84-3.37-6.15-2.61,4.28-.56,7.81,2.1,10.99-2.52,5.15-4.84,9.91-7.06,14.45,1.89,4.01,3.34,8.37,5.83,12.02,3.11,4.55-1.55,9.45,.81,13.79,6.59-.51,11.79-1.9,11.24-9.67l.04,.24c-3.69-4.99-.04-8.58,3.65-13.34-3.96,.72-5.75-.62-6.63-3.16Zm-18.93,44.9c1.62-2.63,3.2-5.18,4.7-7.62q-5.62-5.42-3.19-11.19c1.6,.2,3.2,.4,4.82,.6,.99-3.88,3.01-7.16-.28-10.24-6.19-5.79-7.81-14.86-3.63-21.96,1.87-3.17,2.95-6.01-.04-9.62-1.28,2.05-2.2,3.52-3.89,6.23-.91-4.61-1.91-7.73-2.05-10.89-.15-3.33,.53-6.69,.84-10.04-.5-.23-1-.45-1.5-.67-1.59,1.63-3.17,3.26-3.92,4.03,1.14,3.07,2.93,5.42,2.35,6.73-2.08,4.69-.58,8.43,1.1,12.79,1.1,2.85,.03,6.61-.44,9.91-.07,.47-2.21,.64-3.33,.93,.84,5.41,5.91,4.34,7.96,6.18,0,3.9,.44,7.21-.1,10.36-.76,4.42-2.85,8.66-3.22,13.08-.32,3.72-.33,7.99,3.83,11.4Zm26.48,17.83c2.71-3.57,4.85-6.39,7.22-9.51-5.38-2.36-5.06,4.6-8.25,4.67-2.2-.82-4.18-1.56-6.04-2.25-3.09,4.61-3.48,8.76-.59,14.03,1.54-4.6,2.46-8.94,7.66-6.94Zm-20.46-8.82c1.93,4.75,3.55,8.74,5.62,13.82,.27-5.47,.49-9.97,.74-14.95-2.58-.32-5.2-1.43-6.35,1.13Zm-14.5-29.75c.63-4.46,1.09-7.7,1.65-11.65-.05-.04-1.03-.72-2.09-1.46-2.04,2.14-3.84,4.02-5.97,6.26,2.09,2.23,3.87,4.13,6.42,6.85Zm36.81-79.97c.42,1.48,.83,2.94,1.42,5,2.79-3.5,.83-5.67-.04-8.11h-9.33c1.49,2.54,2.54,4.32,3.79,6.43,1.54-1.23,2.84-2.27,4.16-3.32Zm-54.24-171.43c-.63,3.69-1.08,6.38-1.58,9.29,2.32,.63,4.12,1.13,6.05,1.65,1.9-4.98-.69-7.59-4.47-10.95Zm-17.48,288.87c.11,.54,.23,1.08,.34,1.62,2.22,.5,4.44,1,6.84,1.55,.72-3.14,1.25-5.47,1.77-7.75-6.13-3.37-6.23,2.79-8.95,4.58Zm41.35-104.25c.86,5.01,1.44,8.36,2.02,11.7,.44,0,.89,.01,1.33,.02,1.15-2.51,2.29-5.02,3.6-7.88-2.18-1.2-4.01-2.21-6.95-3.84Zm35.02,40.98c-4.93,2.52-4.31,5.84-2.65,9.49q5.21-3.55,2.65-9.49Zm-18.03,40.37c3.36-.17,5.45-.28,8.22-.42-.61-2.9-1.03-4.86-1.52-7.2-2.26,2.57-3.93,4.47-6.7,7.62Zm13.08-188.28c2.55,1.69,3.82,.99,4.44-1.65,.6-2.54,1.57-5.13-2.68-5.23-.59,2.31-1.19,4.62-1.76,6.88Zm20.3,208.63q-3.64,4.74-1.02,9.54c.43-4,.72-6.77,1.02-9.54Zm-69.31-53.95q3.1,4.98,6.31,3.19c-2.24-1.13-4.27-2.16-6.31-3.19Zm40.34-110.51c-1.01,2.97-2.74,4.98-.43,7.69,3.39-1.99,2.67-4.17,.43-7.69Zm-6.78,55.9q-.6,4.37,4.3,5c-1.91-2.22-3.11-3.61-4.3-5Zm-20.53-207.08c-2.45,1.73-2.61,3.53-1.11,5.16,.44,.48,2.04-.09,3.47-.22-.96-2.02-1.63-3.41-2.37-4.95Zm-52.37,296.16c.53-.1,1.05-.2,1.57-.3,.3-2.09,.99-4.29-2.56-6.31,.42,2.79,.7,4.7,.99,6.61Zm114.8,2.39q3.2-2.89,0-5.89v5.89Zm-60.37,20.92c-.36,.48-.72,.96-1.08,1.45,.65,1.91,1.6,3.18,4.75,.89-1.44-.92-2.56-1.63-3.67-2.33Zm-44.51-20.69c.47-.08,.93-.16,1.39-.25-.2-1.11-.4-2.22-.59-3.34-.47,.1-1.35,.24-1.34,.28,.12,1.11,.34,2.2,.54,3.3Zm52.75,12.84c.4-.47,.8-.94,1.19-1.41-1.03-.83-2.06-1.67-3.97-3.22,.35,1.99,.26,2.84,.64,3.28,.53,.61,1.41,.92,2.14,1.36Zm-25.84-3.23c-.45,0-.89,0-1.34,0v4.02c.45,0,.89,0,1.34,0v-4.02Zm56.28-146.7c-.53-.06-1.05-.12-1.58-.17-.22,1.48-.44,2.96-.65,4.45,.58,.07,1.17,.13,1.75,.2,.16-1.49,.32-2.98,.48-4.47Zm8.87,96.64c.58-.62,1.16-1.25,1.73-1.87-1.2-.94-2.39-1.89-3.59-2.83-.44,.51-.89,1.02-1.33,1.53,1.06,1.06,2.12,2.12,3.18,3.17Zm10.66,61.14c-.69,1.08-1.43,1.73-1.34,2.23,.1,.54,.92,1.19,1.52,1.32,.4,.08,1.44-.85,1.38-1.03-.28-.79-.86-1.46-1.56-2.51Zm-84.78-130.12q-2.49,2.01-.69,5.03c.28-2.03,.46-3.33,.69-5.03Z"/><path  d="M1569.44,352.28c-6.51,12.97-3.48,25.5,.97,37.86,2.14,5.94,2.02,6.78-3.65,8.78-2.08,.73-3.99,1.91-6.06,2.69-1.35,.51-2.99,1.21-4.25,.88-8.67-2.31-17.34-3.74-26.41-3.36-3.77,.16-6.12-3.34-6.95-7-2.46-10.89-4.87-21.72-3.59-33.14,.7-6.19,2.37-11.65,5.81-16.71,.7-1.04,1.41-2.1,1.9-3.25,2.52-5.93,4.7-12.07,10.63-15.19-1.81-3.9-3.43-7.37-4.95-10.66,5.81-4.81,6.34-5.8,3.94-11.72-6.67-16.46-14.18-32.44-28.32-44.1-2.86-2.36-6.05-4.32-9.18-6.32-13.22-8.48-15.19-9.21-32.19-12.14-.85,1.2-2.14,2.45-2.72,3.97-1.79,4.73-5.37,7.05-10.03,8.08-11.47,2.54-22.41,1.55-32.69-4.59-3.74-2.23-7.96-3.69-11.53-6.13-5.72-3.91-11.08-8.35-16.59-12.57-1.98-1.52-3.82-3.31-5.99-4.48-7.29-3.93-12.54-9.84-16.96-16.66-.95-1.46-1.93-3.24-3.36-3.99-11.43-5.99-15.3-18.63-24.02-26.96-1.12-6.53-7.33-10.51-8.12-17.46-1.12-9.84,6.32-18.52,15.9-16.51,5.99,1.25,12.38,3.2,17.22,6.72,5.08,3.7,9.09,2.96,13.7,.93,2.51,1.31,4.92,2.57,6.58,3.44,3.89-.49,7.12-.85,10.33-1.31,3.45-.5,7.26-.34,10.26-1.8,6.19-3.01,11.97-2.5,18.04-.15,1.84,.72,3.87,1.23,5.83,1.3,12.81,.48,21.23,7.87,28.17,17.64,.58,.81,.84,1.88,1.51,2.6,6.82,7.29,5.45,16.67,6.04,25.36,.23,3.41-2.18,7.01-3.42,10.61,2.19,4.31,6.38,5.65,10.62,5.95,6.16,.44,10.71,3.86,15.54,6.95,5.89,3.77,11.78,7.54,17.68,11.28,.63,.4,1.51,.47,2.03,.96,7.15,6.73,14.55,13.22,21.26,20.36,4.89,5.2,9.3,10.98,13.11,17.02,3.53,5.59,5.9,11.9,8.94,17.82,1.01,1.96,2.5,3.67,4.53,6.58,1.6-3.1,2.74-4.71,3.31-6.5,3.37-10.56,8.63-20.31,14.64-29.41,3.81-5.76,7.42-11.98,14.01-16.08,6.71-4.18,10.28-11.74,14.02-18.84,4.24-8.04,5.96-16.32,5.23-25.28-.46-5.74,4.72-10.99,11.24-11.68,4.54-.48,7.74,2.98,9.3,8.73,2.77,10.16,1.71,19.61-3.33,28.87-2.13,3.92-3.01,8.52-5.02,12.53-1.99,3.96-4.65,7.58-7.09,11.31-3.82,5.82-7.72,11.59-11.54,17.42-1.48,2.26-3.11,4.5-4.18,6.96-1.34,3.11-2.47,6.39-3.16,9.7-1.13,5.44-1.84,10.96-2.87,17.4,3.7-.39,6.3-.56,8.87-.96,8.61-1.33,17.2-2.79,25.82-4.11,1.7-.26,3.46-.17,5.19-.17,1.73,0,4.04,.84,5.1,.02,7.38-5.72,16.65-3.16,24.79-5.94,7.19-2.46,13.58-5.8,20.18-9.37,5.39-2.91,7.62-7.88,13.59-11.31-6.21-2.13-10.34,.18-14.55,.37-2.89,.13-5.87,.13-7.11-2.84-1.25-2.97,.32-5.14,2.32-7.86,4.04-5.5,7.85-11.46,9.1-18.47,.05-.29-.6-.71-1.33-1.51-6.01,3.26-7.72,9.93-11.57,14.87-4.06,5.21-5.8,12.34-12.76,15.28-1.66,.7-3.08,2.63-4.01,4.32-3.57,6.53-9.8,8.27-16.34,9.16-4.41,.6-8.41-3.38-9.27-9.04-1.87-12.35,1.64-23.18,8.68-33.46,4.31-6.3,9.89-10.88,15.47-15.73,5.91-5.13,13.25-7.01,20.34-8.97,11.43-3.16,23.35-3.8,35.14-4.65,12.3-.89,24.1-3.66,35.5-8.16,2.26-.89,4.04-2.93,6.15-4.28,7.76-4.95,14.69-4.36,19.49-.24,2.54,2.18,3.83,4.6,2.91,7.91-1.13,4.09-1.73,8.47-3.63,12.18-3.37,6.58-5.42,13.78-11.07,19.36-3.52,3.48-4.92,9.08-7.36,13.68-.7,1.31-1.48,2.83-2.65,3.59-8.14,5.24-11.06,14.54-16.96,21.49-6.19,7.3-12.06,14.9-18.64,21.82-5.8,6.1-12.28,11.58-18.66,17.11-8.03,6.97-17.81,11.3-27.83,13.45-9.17,1.97-19.47,3.39-27.57-4.4-2.11-2.03-4.4-4.19-5.63-6.76-1.71-3.59-4.6-4.24-7.44-3.26-8.01,2.75-15.99,5.73-23.68,9.28-5.43,2.51-4.84,3.96-1.9,9.18,5.65,10.04,16.38,15.25,22.56,24.76,1.62,2.5,5.24,3.62,7.47,5.85,3.12,3.11,2.6,5-1.32,6.58-1.62,.66-3.3,1.53-4.98,1.62-7.23,.38-13.63,2.91-19.7,6.71-2.68,1.68-5.15,1.3-8.24-.48-8.6-4.96-15.8-11.27-21.39-19.39-1.65-2.4-3.09-4.55-7.18-3.92Zm-156.73-148.96c4.21,2.94,7.5,5.97,11.36,7.78,5.98,2.8,12.22,5.36,18.62,6.85,3.58,.84,7.91-.1,11.49-1.38,1.64-.58,2.52-3.85,3.18-6.07,.12-.39-2.5-1.8-3.99-2.41-1.7-.7-4.13-.49-5.22-1.64-6.47-6.82-12.6-13.96-18.97-20.88-1.72-1.87-3.84-3.37-6.64-5.78-1.16,8.43,8.36,12.51,4.64,20.58-4.15,.85-8.72,1.78-14.48,2.95Zm151.53,143.91c3.47-6.72,3.45-7.43,0-11.11v11.11Zm-6.33-9.3c-2.22,2.74-5.37,2.98-4.25,6.43,.11,.35,.78,.8,1.12,.76,3.18-.44,3.37-2.78,3.13-7.19Zm153.66-75.75q3.28-3.5-.77-4.88c.25,1.55,.49,3.08,.77,4.88Zm-23.84,45.59c2.94,2.32,4.08,1.4,4.19-2.01-1.74,.83-2.96,1.42-4.19,2.01Zm-75.79-5.77c-.45-.12-.89-.23-1.34-.35-.29,1.1-.6,2.2-.81,3.32-.01,.07,.82,.29,1.26,.45,.3-1.14,.59-2.28,.89-3.42Z"/><path  d="M1620.64,182.39c-2.95-2.14-5.36-3.89-7.67-5.56-2.93-14.13-.94-27.99,2.13-41.67,1.36-6.07,4.13-11.83,6.32-17.71,1.27-3.42,3.97-6.53,1.87-11.53-7.21,5.72-12.18,12.36-14.03,21.21-1.14,5.46-2.49,10.76-9.28,13.42-6.47-5.83-13.21-11.36-13.05-21.8,.08-4.79-1.35-9.6-2.2-15.09-4.42,6.02-6.21,17.84-4.55,24.73,.74,3.07,1.11,6.31,1.1,9.47-.02,5.82,1.14,11.23,2.92,16.83,1.74,5.49,4.08,10.5,6.87,15.41,2.32,4.08,4.28,8.27,7.94,11.63,2.83,2.59,4.69,6.42,6.42,9.98,2.29,4.68,1.28,6.71-2.21,10.72-5.56,6.39-12.92,7.86-20.62,10.14-8.46,2.5-15.67,1.29-23.18-1.59-2-.77-4.19-2.1-5.36-3.81-3.88-5.63-9.58-10.03-11.4-17.11-1.34-5.22-3.48-10.23-4.76-15.46-4.1-16.68-5.31-33.49-1.99-50.51,.8-4.12,.63-8.43,1.32-12.59,.68-4.15,1.83-8.22,2.86-12.3,.42-1.66,1.42-3.23,1.56-4.9,.8-9.33,4.93-17.6,8.01-26.21,.66-1.84,1.45-3.71,1.63-5.62,.51-5.29,1.63-9.96,5.37-14.34,2.53-2.97,2.59-7.93,4.3-11.75,3.77-8.39,7.5-16.85,12.06-24.82,2.13-3.73,5.7-7.1,9.38-9.39,8.64-5.38,19.83-.22,22.37,9.82,.49,1.94,.94,3.92,1.13,5.91,.61,6.61,2.74,12.59,6.43,18.17,3.74,5.66,5.52,12.3,12.35,16.17,4.43,2.51,7,8.19,10.64,12.24,7.49,8.35,15.15,16.53,22.67,24.86,.98,1.08,1.56,2.54,2.2,3.89,.42,.9,.4,2.05,.94,2.84,5.52,8.07,6.78,17.41,8.28,26.74,.64,3.99,.69,7.63-.09,11.73-2.11,11.17-7.34,20.67-14,29.48-7.36,9.73-16.93,16-29.46,17.02-1.72,.14-3.39,.87-5.2,1.36Zm16.9-51.72c.21-3.85,.32-6.03,.52-9.66-2.64,1.95-3.94,2.9-5.7,4.21,1.53,1.6,2.74,2.88,5.19,5.45Zm-53.28,51.32q-2.42,6.24,.62,7.83c.62-2.74,3.2-5.38-.62-7.83Zm-38.56-52.79q4.38,3.02,5.27-1.85c-1.98,.69-3.62,1.27-5.27,1.85Zm80.4-47.41c.67-.15,1.34-.3,2.01-.45-.42-1.49-.84-2.98-1.26-4.48-.44,.08-.89,.17-1.33,.25,.19,1.56,.39,3.12,.58,4.68Z"/><path  d="M1687.33,487.78c-.93,1.3-1.63,3.46-3,4.04-9.83,4.13-18.95,10.09-29.67,11.96-6.76,1.18-13.52,2.83-20.32,3.1-6.14,.24-12.66-.11-18.44-1.97-9.59-3.08-20.28-2.99-28.71-9.67-1.61-1.28-4.44-.96-6.17-2.16-4.25-2.93-8.67-5.53-10.12-11.47-.88-3.6-4.07-6.63-6.42-10.19,2.02-1.78,3.6-3.17,5.72-5.03-1.97-.59-3.43-1.03-5.27-1.59-1.88-13.14,.55-24.89,10.33-34.79,5.94-6.02,11.16-12.75,16.9-18.98,5.79-6.29,13.32-9.98,20.55-14.37,7.28-4.42,14.82-6.9,22.66-8.82,15.57-3.81,31.49-4.67,47.45-3.35,7,.58,13.03,3.5,19.09,7.58,6.14,4.14,10.71,9.23,15.16,14.77,10.77,13.39,10.7,28.85,6.32,43.92-3.24,11.14-10.3,20.83-20.24,27.79-2.25,1.58-4.21,3.62-6.57,4.98-2.81,1.63-5.91,2.75-9.26,4.26Zm-96.87-33.19c-.86,1.89-2.8,4.23-2.77,6.55,.04,3.29,.5,7.74,2.62,9.6,4.19,3.67,11.26,2.22,15.3,7.08,0,0,.36-.42,.53-.41,9.2,.54,18.56,.26,27.55,1.93,7.98,1.48,15.7,.7,22.69-1.84,7-2.55,13.13-7.69,19.36-12.09,5.25-3.71,10.2-7.88,15.1-12.05,6.08-5.17,7.94-16.5,4.06-23.4-2.37-4.21-6.07-4.3-8.65-.15-.65,1.05-.81,2.44-1.53,3.42-2.49,3.39-4.49,7.67-7.84,9.79-6.4,4.04-13.53,6.96-20.46,10.11-6.93,3.15-15.09,2.91-21.49,7.54-3.49,2.52-6.81,5.18-11.57,3.13-.64-.28-2.02,.24-2.58,.84-3.26,3.52-6.54,2.1-10,.41-2.2-1.07-4.69-1.55-6.85-2.69-4.11-2.17-8.06-4.61-13.49-7.75Zm67.9-56.4c-1.78,1.44-3.57,2.88-5.23,4.22,2.73,5.44,6.4,4.68,10.18,3.54,1.29-4.81-2.26-5.9-4.95-7.76Zm-67.61,84.4c-1.83,3.37-3.04,5.6-4.68,8.62,6.15-.65,4.5-4.39,4.68-8.62Zm17.77-54.01c-.19-.63-.38-1.25-.57-1.88-1.59,.71-3.18,1.41-4.78,2.12,.17,.46,.34,.92,.51,1.37,1.61-.54,3.22-1.08,4.84-1.62Zm27.89,21.54q2.59-3.55,0-5.03v5.03Z"/><path  d="M1581.75,519.41c-2,4.45-3.58,8.98-5.97,13.03-3.84,6.49-14.17,10.12-21.68,8.18-.73-.19-1.44-.51-2.18-.56-11.65-.81-21.14-6.42-30.11-13.34-4.07-3.14-8.86-5.45-12.54-8.95-5.86-5.56-11.94-11.24-16.29-17.93-3.96-6.11-5.58-13.7-8.52-20.51-4.5-10.39-1.54-20.52,1.1-30.52,.83-3.16,3.31-6.22,5.78-8.53,5.93-5.56,12.14-10.88,19.5-14.54,1.23-.61,2.83-.46,4.27-.65,1.98-.26,4.41,.15,5.86-.87,6.07-4.26,12.31-2.64,18.63-1.3,1.94,.41,3.9,.67,5.84,1.05,5.34,1.05,6.13,3.02,3.2,7.81-1.16,1.9-2.33,3.81-3.36,5.78-5.8,11.12-3.61,22.51-.98,33.87,.84,3.63,1.91,7.23,3.19,10.73,.99,2.71,2.11,5.52,3.82,7.81,7.06,9.49,14.73,18.42,24.87,24.88,1.85,1.18,3.44,2.8,5.57,4.57Zm-56.83-20.84c7.43-5.41,6.72-12.03,5.07-18.84-5.95-2.29-3.16,5.59-6.96,5.71,3.04,3.58-.17,7.02-.16,10.53,0,.74,1.11,1.47,2.04,2.6Zm-3.66-31.94c-.7,5.14-8.52,8.96-3.67,15.66,7.65-4.05,5.14-10,3.67-15.66Zm-5.63,42.92c2.55-.41,3.26-.49,3.96-.64,.69-.15,1.37-.36,2.03-.54q-.08-5.68-6.65-8.43c1.99,3.19,3.18,5.09,4.37,6.99-.75,.53-1.5,1.07-3.7,2.63Zm21.31-27.34c.85,2.7,1.84,4.49,1.87,6.29,.03,2.33-.14,4.28,2.95,4.58,.28-7.09-.33-8.64-4.82-10.86Zm-14.97-35.84c-4.84-1.55-5.65,.05-4.81,4.78,1.91-1.9,3.12-3.1,4.81-4.78Zm16.8,57.6c2.29-1.71,3.45-3.41,0-5.24v5.24Zm-14.44,2.58c2.07-.69,4.31-1.7,.9-3.3-.31,1.14-.61,2.22-.9,3.3Zm5.29-32.02c-1.15-.39-1.95-.89-2.72-.84-.54,.04-1.04,.83-1.55,1.29,.94,.53,1.85,1.14,2.85,1.51,.15,.06,.71-.96,1.42-1.96Z"/><path  d="M2469.12,571.23c-1.53,3.34-4.53,3.27-8.41,3.96,2.51-4.01,5.01-5.05,8.44-3.72l-.03-.24Z"/><path  d="M2703.57,477.42c1.6,.26,3.2,.52,4.78,.77,.92,2.45,.07,4.56-2.06,4.52-1.34-.02-2.64-2.36-3.96-3.66,.42-.55,.83-1.09,1.25-1.64Z"/><path  d="M2721.07,487.01c-.03-.25-.08-.49-.1-.74-.1-1.32-.19-2.64-.28-3.96,.84,.23,2.14,.19,2.46,.73,1.41,2.42-1.17,2.67-2.27,3.74,.02,.02,.18,.23,.18,.23Z"/><path  d="M2466.19,554.98c-4.24,3.32-4.74,7.63-1.83,13.92-8.7-8.64-8.89-11.55-1.28-18.82,1.05,1.66,2.11,3.35,3.2,5.08,.02,.03-.09-.18-.09-.18Z"/></svg>